<?xml version="1.0" standalone="no"?>
<!DOCTYPE svg PUBLIC "-//W3C//DTD SVG 1.1//EN" "http://www.w3.org/Graphics/SVG/1.1/DTD/svg11.dtd" >
<svg>
<metadata>
Created by FontForge 20090914 at Mon Nov 21 07:35:48 2016
 By www-data
&#194;&#169;1991 AG Baltia
</metadata>
<defs>
<font id="Optima-Bold" horiz-adv-x="556" >
  <font-face 
    font-family="Optima"
    font-weight="700"
    font-stretch="normal"
    units-per-em="1000"
    panose-1="0 0 0 0 0 0 0 0 0 0"
    ascent="800"
    descent="-200"
    x-height="480"
    cap-height="681"
    bbox="-20 -263.992 1031 884.999"
    underline-thickness="38"
    underline-position="-122"
    unicode-range="U+0020-U+2122"
  />
<missing-glyph horiz-adv-x="736" 
d="M46 0v736h644v-736h-644zM644 46v644h-552v-644h552z" />
    <glyph glyph-name=".notdef" horiz-adv-x="736" 
d="M46 0v736h644v-736h-644zM644 46v644h-552v-644h552z" />
    <glyph glyph-name="space" unicode=" " horiz-adv-x="278" 
 />
    <glyph glyph-name="exclam" unicode="!" horiz-adv-x="333" 
d="M86 68c0 22 8.16699 41.167 24.5 57.5s35.5 24.5 57.5 24.5s41.167 -8.16699 57.5 -24.5s24.5 -35.5 24.5 -57.5c0 -22.667 -8 -42 -24 -58s-35.333 -24 -58 -24s-42 8 -58 24s-24 35.333 -24 58zM180 221h-28.001c-7.33301 34 -14.333 69 -21 105l-32 177
c-3.33301 17.333 -6.66602 37 -9.99902 59s-5 41.333 -5 58c0 23.333 8 42.333 24 57s35.667 22 59 22c26 0 46 -7.66699 60 -23s21 -36 21 -62c0 -12 -3.33301 -37 -10 -75l-15 -79l-21 -114l-11 -58.5c-3.33301 -18.333 -7 -40.5 -11 -66.5z" />
    <glyph glyph-name="quotedbl" unicode="&#x22;" horiz-adv-x="333" 
d="M124 619l-0.00195312 -169c0.666992 -3.33301 1 -8 1 -14c0 -14 -3.16699 -25.167 -9.5 -33.5s-16.166 -12.5 -29.499 -12.5c-26.667 0 -40 15.333 -40 46c0.666992 6 1 10.667 1 14v169c0 29.333 2.33301 50 7 62s15.334 18 32.001 18c14 0 23.833 -6.5 29.5 -19.5
s8.5 -33.167 8.5 -60.5zM286.998 619v-169c0.666992 -3.33301 1 -8 1 -14c0 -14 -3.16699 -25.167 -9.5 -33.5s-16.166 -12.5 -29.499 -12.5c-26.667 0 -40 14 -40 42c0 7.33301 0.333008 13.333 1 18v169c0 29.333 2.66699 50 8 62s15.666 18 30.999 18
c14 0 23.833 -6.5 29.5 -19.5s8.5 -33.167 8.5 -60.5z" />
    <glyph glyph-name="numbersign" unicode="#" 
d="M498 287v-74h-105l-32 -213h-75l32 213h-108l-32 -213h-75l32 213h-103v74h115l16 105h-103v74h114l30 198h75l-30 -198h107l29 198h75l-29 -198h93v-74h-104l-16 -105h94zM345 392h-107l-16 -105h107z" />
    <glyph glyph-name="dollar" unicode="$" 
d="M242 36l-0.000976562 236.999c-68.667 13.333 -117.667 32 -147 56c-38.667 31.333 -58 79 -58 143c0 47.333 12.5 86.333 37.5 117s60.5 53.667 106.5 69c19.333 6 39.666 10 60.999 12v80c5.33301 -1.33301 10.166 -2 14.499 -2h14.5h11c4 0 10 0.666992 18 2v-80
c34 0 65.667 -4.16699 95 -12.5s56.333 -22.166 81 -41.499c-9.33301 -20 -16.5 -36.5 -21.5 -49.5s-10.167 -29.833 -15.5 -50.5h-14c-9.33301 28 -25.166 51.333 -47.499 70s-48.166 30 -77.499 34v-216c68 -14.667 118.667 -35 152 -61c44 -34 66 -81.667 66 -143
c0 -60 -21.667 -110.667 -65 -152s-94.333 -62 -153 -62v-108c-10 2 -20.667 3 -32 3h-13c-6 -1.33301 -10.333 -2 -13 -2v107c-37.333 0 -72.833 5.5 -106.5 16.5s-64.5 27.5 -92.5 49.5l25 118h19c9.33301 -34.667 28.333 -64.167 57 -88.5s61.334 -39.5 98.001 -45.5z
M241.999 420.999l0.000976562 199.001c-26.667 -3.33301 -47.834 -13.833 -63.501 -31.5s-23.5 -40.5 -23.5 -68.5c0 -26.667 8 -48.334 24 -65.001c14 -14.667 35 -26 63 -34zM300 257v-221c18.667 0 39 9.66699 61 29c26 23.333 39 50.666 39 81.999
c0 30.667 -13 57.334 -39 80.001c-20.667 18 -41 28 -61 30z" />
    <glyph glyph-name="percent" unicode="%" horiz-adv-x="1000" 
d="M292 -30l347 724c10.667 -1.33301 19 -2 25 -2h14c6.66699 1.33301 11.667 2 15 2l-348 -724c-10.667 1.33301 -18.667 2 -24 2h-14c-6.66699 -1.33301 -11.667 -2 -15 -2zM723 -14c-49.333 0 -88.667 14.667 -118 44s-44 69 -44 119c0 47.333 16.833 86.833 50.5 118.5
s74.5 47.5 122.5 47.5c45.333 0 83.666 -13 114.999 -39c34 -28.667 51 -66.667 51 -114c0 -53.333 -16.667 -96 -50 -128s-75.666 -48 -126.999 -48zM727.999 18c30 0 50.667 17.6689 62 53.002c6.66699 21.333 10 51.666 10 90.999c0 31.333 -3.66699 57 -11 77
c-10.667 29.333 -29.334 44 -56.001 44c-29.333 0 -49.666 -16.333 -60.999 -49c-7.33301 -21.333 -11 -50.333 -11 -87s3 -64.334 9 -83.001c10 -30.667 29.333 -46 58 -46zM261.999 341.002c-49.333 0 -88.667 14.667 -118 44s-44 69 -44 119
c0 47.333 16.833 86.833 50.5 118.5s74.5 47.5 122.5 47.5c45.333 0 83.666 -13 114.999 -39c34 -28.667 51 -66.667 51 -114c0 -53.333 -16.667 -96 -50 -128s-75.666 -48 -126.999 -48zM266.998 373.002c30 0 50.667 17.6689 62 53.002
c6.66699 21.333 10 51.666 10 90.999c0 31.333 -3.66699 57 -11 77c-10.667 29.333 -29.334 44 -56.001 44c-29.333 0 -49.666 -16.333 -60.999 -49c-7.33301 -21.333 -11 -50.333 -11 -87s3 -64.334 9 -83.001c10 -30.667 29.333 -46 58 -46z" />
    <glyph glyph-name="ampersand" unicode="&#x26;" horiz-adv-x="722" 
d="M366 390l11 -13.9971l145 -176c22 25.333 43.667 55.666 65 90.999c18 30 36 63 54 99l55 -57c-24.667 -34.667 -46.667 -64.334 -66 -89.001c-22 -28 -46.333 -56 -73 -84l137 -152v-13c-13.333 0 -31.333 0.833008 -54 2.5s-36.334 2.5 -41.001 2.5
c-13.333 0 -31.333 -0.833008 -54 -2.5s-36.334 -2.5 -41.001 -2.5l-51 71c-28 -24.667 -61.333 -44.834 -100 -60.501s-76 -23.5 -112 -23.5c-29.333 0 -55.166 3.5 -77.499 10.5s-44.5 19.5 -66.5 37.5c-37.333 30.667 -56 71.334 -56 122.001c0 46.667 19 89 57 127
c30 29.333 70.333 55.666 121 78.999c-19.333 28.667 -32.333 48.334 -39 59.001c-22.667 38 -34 75 -34 111c0 45.333 18.333 82.166 55 110.499s79 42.5 127 42.5c43.333 0 80 -9 110 -27c36.667 -22 55 -53.333 55 -94c0 -27.333 -8 -53.333 -24 -78
c-19.333 -30 -53.666 -60.667 -102.999 -92zM337 426.003c19.333 15.333 37.168 35.498 53.501 60.498s24.5 48.167 24.5 69.5c0 20.667 -6.16699 38.667 -18.5 54s-28.833 23 -49.5 23c-48 0 -72 -24.333 -72 -73c0 -19.333 7.33301 -42.666 22 -69.999
c7.33301 -13.333 20.666 -34.666 39.999 -63.999zM248.002 319.001c-22 -14.667 -39.6641 -31.667 -52.9971 -51c-15.333 -22 -23 -45 -23 -69c0 -30 10.667 -58.667 32 -86c9.33301 -11.333 18.666 -20.333 27.999 -27s21.666 -13 36.999 -19
c5.33301 -2 12.166 -3.66699 20.499 -5s19.5 -2 33.5 -2c17.333 0 35.833 3.83301 55.5 11.5s35.167 17.5 46.5 29.5l-90 108z" />
    <glyph glyph-name="quotesingle" unicode="'" horiz-adv-x="278" 
d="M178 619v-169c0.666992 -3.33301 1 -8 1 -14c0 -14 -3.16699 -25.167 -9.5 -33.5s-16.166 -12.5 -29.499 -12.5c-26.667 0 -40 15.333 -40 46c0.666992 6 1 10.667 1 14v169c0 29.333 2.66699 50 8 62s15.666 18 30.999 18c14 0 23.833 -6.5 29.5 -19.5
s8.5 -33.167 8.5 -60.5z" />
    <glyph glyph-name="parenleft" unicode="(" horiz-adv-x="333" 
d="M274 755l25.998 -27c-48 -54 -82.333 -120.333 -103 -199c-17.333 -65.333 -26 -141.333 -26 -228c0 -82 9 -154 27 -216c20.667 -71.333 54.334 -134.333 101.001 -189l-27 -26c-71.333 61.333 -123.666 126.833 -156.999 196.5s-50 152.167 -50 247.5
c0 94 17.333 176.667 52 248c32.667 66.667 85 131 157 193z" />
    <glyph glyph-name="parenright" unicode=")" horiz-adv-x="333" 
d="M59 -130l-25.998 27c48 54 82.333 120.333 103 199c17.333 65.333 26 141.333 26 228c0 82 -9 154 -27 216c-20.667 71.333 -54.334 134.333 -101.001 189l27 26c71.333 -61.333 123.666 -126.833 156.999 -196.5s50 -152.167 50 -247.5
c0 -94 -16.833 -175.5 -50.5 -244.5s-86.5 -134.5 -158.5 -196.5z" />
    <glyph glyph-name="asterisk" unicode="*" horiz-adv-x="444" 
d="M88 615l109.999 -84l-14 139c8 -1.33301 14.833 -2 20.5 -2h18.5h14h11c6.66699 1.33301 11.334 2 14.001 2l-16 -139l109 86c12.667 -26 26.334 -49 41.001 -69l-128 -55l128 -53c-8.66699 -13.333 -15.667 -25 -21 -35c-2.66699 -5.33301 -9 -17.333 -19 -36l-110 80
l16 -136h-27c-8.66699 0 -17.334 0.333008 -26.001 1c-10.667 0 -19 -0.333008 -25 -1l14 136l-106 -84l-29 50l-15 18l132 60l-132 53c16 20.667 29.333 43.667 40 69z" />
    <glyph glyph-name="plus" unicode="+" horiz-adv-x="606" 
d="M260 298v207h86v-207h209v-86h-209v-212h-86v212h-209v86h209z" />
    <glyph glyph-name="comma" unicode="," horiz-adv-x="278" 
d="M22 -178l44.999 185l12 47.5c4 15.667 9.5 31.834 16.5 48.501s15.333 28.667 25 36s22.834 11 39.501 11c18.667 0 34.5 -6.16699 47.5 -18.5s19.5 -26.833 19.5 -43.5c0 -10.667 -3.33301 -21.334 -10 -32.001l-84 -123l-87 -122z" />
    <glyph glyph-name="hyphen" unicode="-" horiz-adv-x="333" 
d="M42 169v107h250v-107h-250z" />
    <glyph glyph-name="period" unicode="." horiz-adv-x="278" 
d="M138 -14c-22.667 0 -41.833 8.16699 -57.5 24.5s-23.5 35.5 -23.5 57.5c0 21.333 8 40.333 24 57s35 25 57 25s41.333 -8 58 -24s25 -35.333 25 -58s-8 -42 -24 -58s-35.667 -24 -59 -24z" />
    <glyph glyph-name="slash" unicode="/" horiz-adv-x="389" 
d="M387 755l-301 -884c-14 2 -28 3 -42 3s-28 -1 -42 -3l301 884c14 -2 28 -3 42 -3s28 1 42 3z" />
    <glyph glyph-name="zero" unicode="0" 
d="M281 670c85.333 0 147.669 -33.667 187.002 -101c32 -54.667 48 -127.667 48 -219c0 -82 -6.33301 -143.667 -19 -185s-31 -76.333 -55 -105c-42.667 -49.333 -97.334 -74 -164.001 -74c-43.333 0 -80 8.33301 -110 25s-55.333 43 -76 79s-34.667 72.833 -42 110.5
s-11 80.167 -11 127.5c0 42 3.66699 84 11 126s19.666 77.333 36.999 106c44 73.333 108.667 110 194 110zM187.003 316c0 -104.667 4.66602 -175.001 13.999 -211.001c12.667 -49.333 38.667 -74 78 -74c34.667 0 58.667 26 72 78c11.333 44 17 117.667 17 221
c0 110 -6.16699 186.667 -18.5 230s-35.166 65 -68.499 65c-36.667 0 -61.5 -24.667 -74.5 -74s-19.5 -127.666 -19.5 -234.999z" />
    <glyph glyph-name="one" unicode="1" 
d="M221 -5l-0.00292969 564.998c-38 -22 -77 -42 -117 -60c-5.33301 9.33301 -11.166 17.833 -17.499 25.5s-14.166 15.834 -23.499 24.501v8c45.333 14.667 94 33.334 146 56.001l142 67l8 -5v-681c-11.333 1.33301 -19.666 2 -24.999 2c-23.333 2 -38 3 -44 3
c-14.667 -0 -28 -0.666992 -40 -2s-21.667 -2.33301 -29 -3z" />
    <glyph glyph-name="two" unicode="2" 
d="M487 0h-440.004v43c60 56 102.333 97.333 127 124c50 53.333 88.333 103 115 149c33.333 58 50 113.333 50 166c0 38.667 -8.33301 71 -25 97c-20 30.667 -48.667 46 -86 46c-31.333 0 -55.666 -17 -72.999 -51c-14 -28 -21 -59.667 -21 -95l-10 -2
c-24 29.333 -50 51.333 -78 66c16 42.667 42.833 74.5 80.5 95.5s80.834 31.5 129.501 31.5c66 0 119.333 -13.667 160 -41c47.333 -32 71 -79.667 71 -143c0 -46 -12.333 -86.667 -37 -122c-14 -20.667 -31.667 -41.667 -53 -63
c-7.33301 -7.33301 -19.666 -18.333 -36.999 -33l-96 -84c-26.667 -24 -47 -43 -61 -57l1 -5h128c16.667 0 42.334 1.33301 77.001 4s60.667 4 78 4l-3.5 -38c-1 -10.667 -1.5 -19.667 -1.5 -27c0 -14 0.5 -25.667 1.5 -35s2.16699 -19.333 3.5 -30z" />
    <glyph glyph-name="three" unicode="3" 
d="M179 317l-0.00195312 50.0029c12 -1.33301 20.667 -2 26 -2c40 0 69.333 13.667 88 41c16 23.333 24 56.666 24 99.999c0 32 -5.33301 58 -16 78c-14.667 27.333 -36.334 41 -65.001 41c-30.667 0 -54 -12 -70 -36c-12 -18 -21 -45.667 -27 -83l-14 -1l-33 34
c-14 14.667 -25.333 25.667 -34 33c22 36.667 49.333 62.167 82 76.5s71.667 21.5 117 21.5c64.667 0 115.667 -13.833 153 -41.5s56 -64.834 56 -111.501c0 -40.667 -11.333 -73.667 -34 -99c-19.333 -22 -49.666 -40.333 -90.999 -55l-13 -5
c-3.33301 -4.66699 -2.66602 -8 2.00098 -10c14.667 -2.66699 23.334 -4.33398 26.001 -5.00098c55.333 -16 90.666 -33.333 105.999 -52c20 -24.667 30 -59 30 -103c0 -60 -25.167 -108.667 -75.5 -146s-110.833 -56 -181.5 -56c-40 0 -75.333 5.33301 -106 16
c-37.333 12.667 -66.333 33 -87 61l33 44c12 16 21.667 30 29 42l13 -1c5.33301 -34.667 16 -62 32 -82c18.667 -23.333 44.667 -35 78 -35c34.667 0 63.334 15.667 86.001 47c20.667 28.667 31 60.667 31 96c0 64.667 -17.333 106.667 -52 126
c-20 11.333 -57.667 17 -113 17z" />
    <glyph glyph-name="four" unicode="4" 
d="M295 162h-261.001l3.5 28c1 8 1.5 14.667 1.5 20c0 10.667 -0.666992 20 -2 28s-2.33301 14.667 -3 20c17.333 24 43 61.667 77 113l82 122l60 89c23.333 34.667 42 64 56 88c10 -1.33301 21.167 -2.5 33.5 -3.5s21.833 -1.5 28.5 -1.5c14 0 25.167 0.5 33.5 1.5
l28.5 3.5v-401h83l-3.5 -31.5c-1 -9 -1.5 -16.167 -1.5 -21.5c0 -12 0.666992 -22.5 2 -31.5s2.33301 -16.5 3 -22.5h-83v-167c-11.333 1.33301 -19.666 2 -24.999 2c-23.333 2 -38 3 -44 3c-14.667 -0 -28 -0.666992 -40 -2s-21.667 -2.33301 -29 -3v167zM294.999 269v291
l-190 -285l5 -6h185z" />
    <glyph glyph-name="five" unicode="5" 
d="M117 664h332.998c-1.33301 -10 -2 -17.333 -2 -22c-2 -20 -3 -32.333 -3 -37c0 -13.333 0.666992 -25 2 -35s2.33301 -18.333 3 -25h-287l-8 -173l6 -3c28.667 15.333 62.334 23 101.001 23c32.667 0 60.834 -3.33301 84.501 -10s46.5 -19.334 68.5 -38.001
c42 -36 63 -82 63 -138c0 -33.333 -7.83301 -64.5 -23.5 -93.5s-37.5 -53.5 -65.5 -73.5c-23.333 -17.333 -51.333 -30.5 -84 -39.5s-65 -13.5 -97 -13.5c-33.333 0 -64.666 4.5 -93.999 13.5s-56.666 23.167 -81.999 42.5c10 14.667 19 30.167 27 46.5
s15.667 34.833 23 55.5h14c8 -31.333 19.667 -56.666 35 -75.999c20 -24.667 44.667 -37 74 -37c43.333 0 76 17.667 98 53c18 29.333 27 66.666 27 111.999c0 39.333 -11.333 73.333 -34 102c-10.667 12.667 -23.334 22.834 -38.001 30.501s-30 11.5 -46 11.5
c-16.667 0 -32.334 -3.5 -47.001 -10.5s-28 -16.833 -40 -29.5l-24 14z" />
    <glyph glyph-name="six" unicode="6" 
d="M420 626l-6 -9.99707c-8.66699 3.33301 -18.167 5.66602 -28.5 6.99902s-20.833 2 -31.5 2c-22.667 0 -43.334 -5.66699 -62.001 -17s-35.334 -26.333 -50.001 -45s-25 -37 -31 -55l-16 -61c-8 -31.333 -12 -63 -12 -95l7 -4c30.667 34 68.334 51 113.001 51
c60 0 109.167 -17 147.5 -51s57.5 -81 57.5 -141c0 -66 -22.667 -119.333 -68 -160s-101.333 -61 -168 -61c-17.333 0 -36.166 2.16699 -56.499 6.5s-37.166 9.83301 -50.499 16.5c-31.333 16 -56.333 37.667 -75 65s-32.167 57 -40.5 89s-12.5 65.667 -12.5 101
c0 69.333 10.333 133.666 31 192.999c24.667 69.333 61 122.666 109 159.999c24.667 18.667 51.667 32.167 81 40.5s60.666 12.5 93.999 12.5c20 0 36.667 -1.66699 50 -5zM185 198.003c0 -45.333 4.00098 -80.333 12.001 -105c13.333 -41.333 37.666 -62 72.999 -62
c31.333 0 55 18.333 71 55c12.667 28.667 19 60.667 19 96c0 42 -5 75.667 -15 101c-15.333 38.667 -40.666 58 -75.999 58c-30.667 0 -53.334 -17 -68.001 -51c-10.667 -25.333 -16 -56 -16 -92z" />
    <glyph glyph-name="seven" unicode="7" 
d="M66 664l456 -0.000976562l7 -19l-120 -210c-41.333 -75.333 -79.333 -148.166 -114 -218.499s-68.667 -144.166 -102 -221.499l-38 3.5c-10.667 1 -19.667 1.5 -27 1.5c-14 0 -25.667 -0.5 -35 -1.5s-19.333 -2.16699 -30 -3.5l183 284c62 99.333 113 185 153 257
l-333 -9c1.33301 11.333 2.5 24.166 3.5 38.499s1.5 24.5 1.5 30.5c0 14.667 -0.5 26.667 -1.5 36z" />
    <glyph glyph-name="eight" unicode="8" 
d="M246 336c-21.333 -10 -37 -31.999 -47 -65.999c-7.33301 -25.333 -11 -53.333 -11 -84c0 -51.333 9.33301 -91.333 28 -120c15.333 -23.333 36 -35 62 -35c30.667 0 54 18.667 70 56c12.667 29.333 19 61.666 19 96.999c0 22 -2 43.833 -6 65.5s-10.333 39.5 -19 53.5
c-16.667 26.667 -38.667 40 -66 40c-10.667 0 -20.667 -2.33301 -30 -7zM377 369.001v-6.99609c41.333 -6.66699 74.666 -25.667 99.999 -57s38 -68 38 -110c0 -63.333 -22.333 -114 -67 -152s-101.334 -57 -170.001 -57c-32 0 -62.167 3.66699 -90.5 11
s-53.833 19.166 -76.5 35.499s-40.167 38 -52.5 65s-18.5 55.167 -18.5 84.5c0 42.667 13 81.667 39 117s59.667 56.333 101 63v7c-32.667 6.66699 -60.167 23 -82.5 49s-33.5 55.667 -33.5 89c0 54.667 22.667 96.667 68 126c38.667 24.667 87 37 145 37
c33.333 0 60.833 -2.33301 82.5 -7s43.834 -14.834 66.501 -30.501s39.334 -32.334 50.001 -50.001s16 -39.834 16 -66.501c0 -36.667 -10.167 -68 -30.5 -94s-48.5 -43.667 -84.5 -53zM201 497.005c0 -16 1.16797 -30.5 3.50098 -43.5s6.66602 -25 12.999 -36
s14.833 -20.167 25.5 -27.5s22 -11 34 -11c28.667 0 49.667 15.333 63 46c10 22.667 15 50.334 15 83.001c0 33.333 -4.66699 59.333 -14 78c-12.667 26 -34 39 -64 39c-29.333 0 -50.333 -15 -63 -45c-8.66699 -20.667 -13 -48.334 -13 -83.001z" />
    <glyph glyph-name="nine" unicode="9" 
d="M97 63l7.00098 7c16.667 -12 30.334 -20.667 41.001 -26c17.333 -8.66699 33 -13 47 -13c58 0 103 31.333 135 94c26 50.667 39 107.334 39 170.001v10l-7 3c-30.667 -34 -70.334 -51 -119.001 -51c-56 0 -102.333 16.333 -139 49c-38.667 34.667 -58 79.667 -58 135
c0 38.667 4.5 70.5 13.5 95.5s26.833 50.833 53.5 77.5c20 19.333 43.333 33.5 70 42.5s55 13.5 85 13.5c40.667 0 77.167 -6.33301 109.5 -19s59.5 -33.667 81.5 -63c18.667 -25.333 32.667 -55.333 42 -90s14 -69.667 14 -105c0 -52 -6 -102.333 -18 -151
s-31 -92.334 -57 -131.001s-60.667 -69.167 -104 -91.5s-88.666 -33.5 -135.999 -33.5c-14 0 -24 0.333008 -30 1s-15 3 -27 7c-2.66699 1.33301 -6.33398 2.5 -11.001 3.5s-8.33398 5.5 -11.001 13.5l-7 21.5c-2 6.33301 -6.66699 16.5 -14 30.5zM364.001 458
c0 45.333 -4.00195 80.333 -12.002 105c-13.333 41.333 -37.666 62 -72.999 62c-30.667 0 -54 -18.333 -70 -55c-12 -28 -18 -59.667 -18 -95c0 -38 5 -70.667 15 -98c15.333 -41.333 40 -62 74 -62c30.667 0 53.334 17 68.001 51c10.667 25.333 16 56 16 92z" />
    <glyph glyph-name="colon" unicode=":" horiz-adv-x="278" 
d="M139 311c-22 0 -41.167 8.16797 -57.5 24.501s-24.5 35.833 -24.5 58.5c0 22 8 41 24 57s35.333 24 58 24c22 0 41.167 -7.83301 57.5 -23.5s24.5 -34.834 24.5 -57.501s-7.83301 -42.167 -23.5 -58.5s-35.167 -24.5 -58.5 -24.5zM139 -13.999c-22.667 0 -42 8 -58 24
s-24 35.333 -24 58c0 22 8.16699 41.167 24.5 57.5s35.5 24.5 57.5 24.5s41.167 -8.16699 57.5 -24.5s24.5 -35.5 24.5 -57.5c0 -22.667 -8 -42 -24 -58s-35.333 -24 -58 -24z" />
    <glyph glyph-name="semicolon" unicode=";" horiz-adv-x="278" 
d="M72 394c0 22 8 41.001 24 57.001s35.333 24 58 24c22 0 41.167 -7.83301 57.5 -23.5s24.5 -34.834 24.5 -57.501s-7.83301 -42.167 -23.5 -58.5s-35.167 -24.5 -58.5 -24.5c-22 0 -41.167 8.16699 -57.5 24.5s-24.5 35.833 -24.5 58.5zM22 -177.999l44.999 185l12 47.5
c4 15.667 9.5 31.834 16.5 48.501s15.333 28.667 25 36s22.834 11 39.501 11c18.667 0 34.5 -6.16699 47.5 -18.5s19.5 -26.833 19.5 -43.5c0 -10.667 -3.33301 -21.334 -10 -32.001l-84 -123l-87 -122z" />
    <glyph glyph-name="less" unicode="&#x3c;" horiz-adv-x="606" 
d="M160 255l398 -183v-84l-509 230v74l509 230v-84z" />
    <glyph glyph-name="equal" unicode="=" horiz-adv-x="606" 
d="M555 396v-86h-504v86h504zM555 200v-86h-504v86h504z" />
    <glyph glyph-name="greater" unicode="&#x3e;" horiz-adv-x="606" 
d="M48 72l398 183l-398 183v84l509 -230v-74l-509 -230v84z" />
    <glyph glyph-name="question" unicode="?" horiz-adv-x="444" 
d="M212 -14c-22.667 0 -42 8 -58 24s-24 35.333 -24 58c0 22 8.16699 41.167 24.5 57.5s35.5 24.5 57.5 24.5s41.167 -8.16699 57.5 -24.5s24.5 -35.5 24.5 -57.5c0 -22.667 -8 -42 -24 -58s-35.333 -24 -58 -24zM308 270l8.99805 -5.00195l-6 -15
c-4.66699 -10.667 -8 -19.667 -10 -27c-20 -2.66699 -40 -5 -60 -7c-18.667 0 -36.834 2.83301 -54.501 8.5s-33 14 -46 25s-23.333 24 -31 39s-11.5 30.5 -11.5 46.5c0 26 5.33301 48.667 16 68c8 14.667 22.667 32.667 44 54l49 54c12.667 14.667 21 25.334 25 32.001
c6.66699 11.333 10 24 10 38c0 20.667 -7 37 -21 49s-32 18 -54 18c-40.667 0 -70 -17.667 -88 -53h-13l-3 67c13.333 10.667 32 19.5 56 26.5s46 10.5 66 10.5c16.667 0 30.334 -0.5 41.001 -1.5s23.834 -3.66699 39.501 -8s29.5 -9.66602 41.5 -15.999
s23.333 -15.833 34 -28.5c22 -26.667 33 -55.334 33 -86.001c0 -47.333 -26.333 -97 -79 -149s-79 -88.333 -79 -109c0 -13.333 4.83301 -24.166 14.5 -32.499s21.5 -12.5 35.5 -12.5c6 0 13.333 1.5 22 4.5s15.334 6.16699 20.001 9.5z" />
    <glyph glyph-name="at" unicode="@" horiz-adv-x="750" 
d="M437 402c0 38.667 -14.666 58 -43.999 58c-34.667 0 -64.334 -26.667 -89.001 -80c-20.667 -44 -31 -86.333 -31 -127c0 -18.667 3 -33.167 9 -43.5s17.333 -15.5 34 -15.5c26 0 51.667 18.333 77 55c29.333 42.667 44 93.667 44 153zM466.001 465l10 39.002h95l-65 -245
c-3.33301 -12 -5 -23 -5 -33c0 -10.667 1.5 -18.667 4.5 -24s8.5 -8 16.5 -8c27.333 0 54.333 19 81 57c31.333 44.667 47 97.667 47 159c0 60.667 -21 112.667 -63 156c-46.667 48.667 -109.334 73 -188.001 73c-85.333 0 -154.5 -27.5 -207.5 -82.5
s-79.5 -127.167 -79.5 -216.5c0 -90.667 27.667 -163 83 -217s127.333 -81 216 -81c46 0 89 11.833 129 35.5s73.333 55.5 100 95.5h65c-29.333 -57.333 -71.666 -103.5 -126.999 -138.5s-114.666 -52.5 -177.999 -52.5c-100 0 -185 33 -255 99s-105 150 -105 252
c0 103.333 33.5 190.166 100.5 260.499s151.167 105.5 252.5 105.5c91.333 0 167.666 -29 228.999 -87c58.667 -56 88 -122.667 88 -200c0 -36.667 -5.5 -71.167 -16.5 -103.5s-28 -60.833 -51 -85.5s-46.833 -44.334 -71.5 -59.001
c-31.333 -18.667 -59.666 -28 -84.999 -28c-22.667 0 -40.334 8.33301 -53.001 25s-19 36.667 -19 60c-19.333 -28 -35.666 -47 -48.999 -57c-18.667 -14.667 -41.334 -22 -68.001 -22c-40 0 -71.333 13.333 -94 40s-34 61.667 -34 105c0 56.667 20.833 108.5 62.5 155.5
s90.167 70.5 145.5 70.5c20 0 38.667 -5.33301 56 -16c13.333 -8 24.333 -18.667 33 -32z" />
    <glyph glyph-name="A" unicode="A" horiz-adv-x="667" 
d="M411 204l-233 -0.000976562l-46.5 -132.5c-9.66699 -28.333 -17.5 -53.166 -23.5 -74.499l-47 3l-48 -3l286 693l38 -3l38 3l279 -695c-12 0 -28.333 0.833008 -49 2.5s-33 2.5 -37 2.5c-12 0 -28.333 -0.833008 -49 -2.5s-33 -2.5 -37 -2.5l-34 107
c-12.667 38.667 -25 72.667 -37 102zM205 264.999h183l-89 233z" />
    <glyph glyph-name="B" unicode="B" horiz-adv-x="611" 
d="M229 623v-235.999h31c18.667 0 34.5 1.66699 47.5 5s25.167 10 36.5 20c14.667 12.667 25.5 28 32.5 46s10.5 37.333 10.5 58c0 35.333 -9.33301 62.666 -28 81.999s-45 29 -79 29c-16 0 -33 -1.33301 -51 -4zM229 329.001v-271h50c30 0 57.167 11.833 81.5 35.5
s36.5 55.5 36.5 95.5c0 52 -14.667 89 -44 111c-26 19.333 -67.333 29 -124 29zM79 0.000976562v681h258c58 0 103.667 -10.333 137 -31c41.333 -25.333 62 -65.333 62 -120c0 -44.667 -16.667 -81.667 -50 -111c-29.333 -26 -67.333 -42.333 -114 -49v-9
c48 -4.66699 87 -17.334 117 -38.001c42 -29.333 63 -71.666 63 -126.999c0 -64.667 -25.333 -114.667 -76 -150c-44 -30.667 -99.333 -46 -166 -46h-231z" />
    <glyph glyph-name="C" unicode="C" horiz-adv-x="667" 
d="M609 117l12.999 -6.00098l-22 -86c-28.667 -14.667 -60 -25.5 -94 -32.5s-68.667 -10.5 -104 -10.5c-109.333 0 -198.666 30.333 -267.999 91c-72 62.667 -108 144.667 -108 246c0 124.667 39 220.667 117 288c71.333 61.333 165 92 281 92
c35.333 0 70.833 -4.16699 106.5 -12.5s68.167 -20.5 97.5 -36.5c-3.33301 -13.333 -7.16602 -29.5 -11.499 -48.5s-8.16602 -37.167 -11.499 -54.5h-14c-18.667 27.333 -43 49.5 -73 66.5s-61 25.5 -93 25.5c-77.333 0 -137 -32.667 -179 -98
c-36 -56 -54 -125.333 -54 -208c0 -88 20.667 -158.5 62 -211.5s100 -79.5 176 -79.5c31.333 0 63.166 6.83301 95.499 20.5s60.166 31.834 83.499 54.501z" />
    <glyph glyph-name="D" unicode="D" horiz-adv-x="778" 
d="M85 681h342c100 0 177 -33 231 -99c47.333 -58 71 -132 71 -222c0 -110.667 -35 -199 -105 -265c-66.667 -63.333 -153 -95 -259 -95h-280v681zM235 623v-565h85c76 0 133.667 21 173 63c46.667 50 70 130 70 240c0 90.667 -20.667 157.667 -62 201
c-38.667 40.667 -94.667 61 -168 61h-98z" />
    <glyph glyph-name="E" unicode="E" horiz-adv-x="500" 
d="M78 681l381.002 -0.00292969c-1.33301 -7.33301 -2.5 -15 -3.5 -23s-1.5 -14.667 -1.5 -20c0 -4.66699 0.666992 -11.667 2 -21s2.33301 -16.666 3 -21.999c-34 4.66699 -69.167 8.16699 -105.5 10.5s-78.166 3.5 -125.499 3.5v-215h104c26 0 46.167 0.5 60.5 1.5
s35.166 3.5 62.499 7.5c-1.33301 -7.33301 -2.5 -15 -3.5 -23s-1.5 -14.667 -1.5 -20c0 -4.66699 0.666992 -11.667 2 -21s2.33301 -16.666 3 -21.999c-16 2 -35.833 4 -59.5 6s-44.834 3 -63.501 3h-104v-254c47.333 0 89.166 1.16699 125.499 3.5s71.5 5.83301 105.5 10.5
c-1.33301 -7.33301 -2.5 -15 -3.5 -23s-1.5 -14.667 -1.5 -20c0 -4.66699 0.666992 -11.667 2 -21s2.33301 -16.666 3 -21.999h-381v681z" />
    <glyph glyph-name="F" unicode="F" horiz-adv-x="500" 
d="M228 326v-331.002c-11.333 0 -20.666 0.333008 -27.999 1c-28.667 2.66699 -44.334 4 -47.001 4c-11.333 0 -26 -0.833008 -44 -2.5s-28.333 -2.5 -31 -2.5v686h381c-1.33301 -7.33301 -2.5 -15 -3.5 -23s-1.5 -14.667 -1.5 -20c0 -4.66699 0.666992 -11.667 2 -21
s2.33301 -16.666 3 -21.999c-44.667 5.33301 -81.667 9 -111 11s-69.333 3 -120 3v-215h106c23.333 0 40.833 0.5 52.5 1.5s34.5 3.5 68.5 7.5c-1.33301 -7.33301 -2.5 -15 -3.5 -23s-1.5 -14.667 -1.5 -20c0 -4.66699 0.666992 -11.667 2 -21s2.33301 -16.666 3 -21.999
l-63 6c-21.333 2 -41 3 -59 3h-105z" />
    <glyph glyph-name="G" unicode="G" horiz-adv-x="778" 
d="M708 304l-0.000976562 -277c-52.667 -14.667 -100 -25.834 -142 -33.501s-83.667 -11.5 -125 -11.5c-114 0 -207 27.333 -279 82c-80 60.667 -120 147 -120 259c0 119.333 40 213 120 281c74.667 63.333 172.334 95 293.001 95c44.667 0 86.667 -4.83301 126 -14.5
s77.666 -25.167 114.999 -46.5c-14.667 -33.333 -24 -67 -28 -101h-14c-22.667 32.667 -51.167 57.834 -85.5 75.501s-71.5 26.5 -111.5 26.5c-79.333 0 -141.666 -32 -186.999 -96c-41.333 -58.667 -62 -133 -62 -223c0 -86.667 21 -154.667 63 -204s101 -74 177 -74
c24.667 0 45.167 2.33301 61.5 7s32.5 11.667 48.5 21v234c11.333 0 26 -0.833008 44 -2.5s28.333 -2.5 31 -2.5c11.333 0 20.666 0.333008 27.999 1c28.667 2.66699 44.334 4 47.001 4z" />
    <glyph glyph-name="H" unicode="H" horiz-adv-x="778" 
d="M86 -5l0.000976562 686c11.333 0 26 -0.833008 44 -2.5s28.333 -2.5 31 -2.5c11.333 0 20.666 0.333008 27.999 1c28.667 2.66699 44.334 4 47.001 4v-271c23.333 0 53.166 -0.833008 89.499 -2.5s57.5 -2.5 63.5 -2.5c23.333 0 42.333 0.333008 57 1
c58.667 2.66699 90.667 4 96 4v271c11.333 0 26 -0.833008 44 -2.5s28.333 -2.5 31 -2.5c11.333 0 20.666 0.333008 27.999 1c28.667 2.66699 44.334 4 47.001 4v-686c-11.333 0 -20.666 0.333008 -27.999 1c-28.667 2.66699 -44.334 4 -47.001 4
c-11.333 0 -26 -0.833008 -44 -2.5s-28.333 -2.5 -31 -2.5v335c-23.333 0 -42.333 0.333008 -57 1c-58 2.66699 -90 4 -96 4c-23.333 0 -53.333 -0.833008 -90 -2.5s-57.667 -2.5 -63 -2.5v-335c-11.333 0 -20.666 0.333008 -27.999 1c-28.667 2.66699 -44.334 4 -47.001 4
c-11.333 0 -26 -0.833008 -44 -2.5s-28.333 -2.5 -31 -2.5z" />
    <glyph glyph-name="I" unicode="I" horiz-adv-x="333" 
d="M91 -5v686c11.333 0 26 -0.833008 44 -2.5s28.333 -2.5 31 -2.5c11.333 0 20.666 0.333008 27.999 1c28.667 2.66699 44.334 4 47.001 4v-686c-11.333 0 -20.666 0.333008 -27.999 1c-28.667 2.66699 -44.334 4 -47.001 4c-11.333 0 -26 -0.833008 -44 -2.5
s-28.333 -2.5 -31 -2.5z" />
    <glyph glyph-name="J" unicode="J" horiz-adv-x="333" 
d="M251 681l0.000976562 -515.002v-27c0 -43.333 -1.33301 -75.666 -4 -96.999c-4.66699 -36 -13.667 -65 -27 -87c-20.667 -34 -47.667 -60.667 -81 -80c-30.667 -17.333 -67.334 -28.666 -110.001 -33.999l-15 47c37.333 10 62 34 74 72c8.66699 27.333 13 72.333 13 135
v53v533c11.333 0 26 -0.833008 44 -2.5s28.333 -2.5 31 -2.5c11.333 0 20.666 0.333008 27.999 1c28.667 2.66699 44.334 4 47.001 4z" />
    <glyph glyph-name="K" unicode="K" horiz-adv-x="611" 
d="M73 -5l0.000976562 686c11.333 0 26 -0.833008 44 -2.5s28.333 -2.5 31 -2.5c11.333 0 20.666 0.333008 27.999 1c28.667 2.66699 44.334 4 47.001 4v-313l260 313l31.5 -3.5c9 -1 16.5 -1.5 22.5 -1.5c11.333 0 20.666 0.5 27.999 1.5l25 3.5v-8l-164 -172l-95 -105
l269 -387v-14c-11.333 0 -20.666 0.333008 -27.999 1c-28.667 2.66699 -44.334 4 -47.001 4c-11.333 0 -26 -0.833008 -44 -2.5s-28.333 -2.5 -31 -2.5l-227 318v-318c-11.333 0 -20.666 0.333008 -27.999 1c-28.667 2.66699 -44.334 4 -47.001 4
c-11.333 0 -26 -0.833008 -44 -2.5s-28.333 -2.5 -31 -2.5z" />
    <glyph glyph-name="L" unicode="L" horiz-adv-x="500" 
d="M230 681l0.000976562 -609.001c42.667 0 79.167 1 109.5 3s70.166 5.66699 119.499 11c-1.33301 -7.33301 -2.5 -15 -3.5 -23s-1.5 -14.667 -1.5 -20c0 -4.66699 0.666992 -11.667 2 -21s2.33301 -16.666 3 -21.999h-379v681c11.333 0 26 -0.833008 44 -2.5
s28.333 -2.5 31 -2.5c11.333 0 20.666 0.333008 27.999 1c28.667 2.66699 44.334 4 47.001 4z" />
    <glyph glyph-name="M" unicode="M" horiz-adv-x="889" 
d="M449 211l75.001 147.002l79 157c36 73.333 62.333 128.666 79 165.999l24.5 -3.5c7 -1 12.833 -1.5 17.5 -1.5s11.667 0.666992 21 2s16.666 2.33301 21.999 3l29 -253c15.333 -132 24.333 -207.333 27 -226c8.66699 -62 19.334 -131 32.001 -207
c-10 0 -25 0.833008 -45 2.5s-32.667 2.5 -38 2.5c-11.333 0 -26.5 -0.833008 -45.5 -2.5s-30.833 -2.5 -35.5 -2.5c0 63.333 -5 137.5 -15 222.5l-28 243.5l-75.5 -153.5l-74.5 -152.5l-72 -155c-10.667 1.33301 -18.667 2 -24 2c-2.66699 0 -7.33398 -0.666992 -14.001 -2
l-68 143l-74 151l-77 156c-10 -75.333 -17 -130.333 -21 -165c-6.66699 -55.333 -11.834 -107 -15.501 -155s-5.5 -93 -5.5 -135l-27.5 3.5c-7.66699 1 -14.167 1.5 -19.5 1.5c-10 0 -18.333 -0.5 -25 -1.5s-13.667 -2.16699 -21 -3.5c12 65.333 23.667 135.666 35 210.999
c6.66699 42 17.5 117.333 32.5 226l34.5 249l24 -3.5c6.66699 -1 12.334 -1.5 17.001 -1.5c9.33301 0 17.5 0.666992 24.5 2s12.833 2.33301 17.5 3l74 -156l77 -157z" />
    <glyph glyph-name="N" unicode="N" horiz-adv-x="778" 
d="M84 -3v684h99l143 -154l146.5 -157l142.5 -157v468l40 -3l40 3v-686l-85 1l-169 189l-168 182l-109 114v-484l-40 3z" />
    <glyph glyph-name="O" unicode="O" horiz-adv-x="833" 
d="M799 343c0 -101.333 -35 -186.001 -105 -254.001c-73.333 -71.333 -169.666 -107 -288.999 -107c-112.667 0 -202.5 31.333 -269.5 94s-100.5 150.334 -100.5 263.001c0 103.333 34.333 188.333 103 255c72 70 169 105 291 105c129.333 0 226.666 -40 291.999 -120
c52 -64 78 -142.667 78 -236zM423 638.999c-71.333 0 -125.667 -26.667 -163 -80c-39.333 -56 -59 -139 -59 -249c0 -73.333 16 -134.333 48 -183c37.333 -56.667 91 -85 161 -85c72.667 0 129 32.333 169 97c36 58.667 54 133 54 223c0 74 -16 136.333 -48 187
c-38 60 -92 90 -162 90z" />
    <glyph glyph-name="P" unicode="P" 
d="M222 296l-0.000976562 -301.001c-11.333 0 -20.666 0.333008 -27.999 1c-28.667 2.66699 -44.334 4 -47.001 4c-11.333 0 -26 -0.833008 -44 -2.5s-28.333 -2.5 -31 -2.5v686h246c142.667 0 214 -56.333 214 -169c0 -83.333 -29 -141.666 -87 -174.999
c-47.333 -27.333 -121.666 -41 -222.999 -41zM221.999 626.999l0.000976562 -276c14.667 0 26 0.333008 34 1s18.667 2.66699 32 6c30.667 8.66699 53.667 26 69 52c13.333 22.667 20 50.667 20 84c0 38.667 -8.83301 70.5 -26.5 95.5s-39.834 37.5 -66.501 37.5h-62z" />
    <glyph glyph-name="Q" unicode="Q" horiz-adv-x="833" 
d="M420 639c-78.667 0 -136.333 -31.334 -173 -94.001c-32.667 -55.333 -49 -133.666 -49 -234.999c0 -73.333 16 -134.333 48 -183c37.333 -56.667 91 -85 161 -85c68.667 0 123 29.333 163 88s60 136 60 232c0 74 -16 136.333 -48 187c-38 60 -92 90 -162 90z
M509.001 -93.001l-107.998 75c-112 0 -201 31 -267 93c-68 64 -102 152 -102 264c0 109.333 38.333 197.333 115 264c73.333 64 166.333 96 279 96c110.667 0 200 -32.667 268 -98s102 -151.333 102 -258c0 -81.333 -22.833 -152.5 -68.5 -213.5
s-107.5 -104.167 -185.5 -129.5c77.333 -49.333 163.666 -100 258.999 -152c-48.667 -10 -95.334 -28.333 -140.001 -55l-75 58c-26 20 -51.667 38.667 -77 56z" />
    <glyph glyph-name="R" unicode="R" horiz-adv-x="611" 
d="M75 -5l0.00390625 686h213c46 0 79.667 -0.833008 101 -2.5s41.666 -7.5 60.999 -17.5c58 -30.667 87 -78.334 87 -143.001c0 -47.333 -14 -86.666 -42 -117.999s-66 -52 -114 -62c26 -45.333 62.333 -104 109 -176l68 -105l39 -62
c-12.667 0 -29.834 0.833008 -51.501 2.5s-34.834 2.5 -39.501 2.5c-12.667 0 -29.834 -0.833008 -51.501 -2.5s-34.5 -2.5 -38.5 -2.5l-119 210l-65 111h-7v-321c-11.333 0 -20.666 0.333008 -27.999 1c-28.667 2.66699 -44.334 4 -47.001 4
c-11.333 0 -26 -0.833008 -44 -2.5s-28.333 -2.5 -31 -2.5zM225.004 627l0.000976562 -267.999c4.66699 -0.666992 9 -1 13 -1h13c87.333 0 131 48 131 144c0 16 -1.66699 32.667 -5 50c-6 31.333 -21.333 52.666 -46 63.999c-16.667 7.33301 -42.334 11 -77.001 11h-29z
" />
    <glyph glyph-name="S" unicode="S" horiz-adv-x="500" 
d="M404 552h-14.999c-10 27.333 -24.667 48.666 -44 63.999s-43 23 -71 23c-37.333 0 -65 -8.83301 -83 -26.5s-27 -41.5 -27 -71.5c0 -36 26 -68.333 78 -97c94.667 -52 143.667 -79.333 147 -82c52.667 -41.333 79 -94.666 79 -159.999c0 -64 -24.667 -116.667 -74 -158
s-113 -62 -191 -62c-29.333 0 -57.833 3.5 -85.5 10.5s-52.834 17.833 -75.501 32.5c8 28 14 50.667 18 68s7.66699 37 11 59h19c7.33301 -34.667 23.333 -61.667 48 -81s54.667 -29 90 -29c33.333 0 61.166 9 83.499 27s33.5 43.667 33.5 77c0 42.667 -25.667 78 -77 106
l-143 76c-52 39.333 -78 93 -78 161c0 60.667 19.333 110 58 148c42 41.333 99.667 62 173 62c33.333 0 64.833 -5 94.5 -15s50.834 -21 63.501 -33c-7.33301 -19.333 -13 -35.333 -17 -48z" />
    <glyph glyph-name="T" unicode="T" 
d="M356 610l-0.000976562 -615c-11.333 0 -20.666 0.333008 -27.999 1c-28.667 2.66699 -44.334 4 -47.001 4c-11.333 0 -26 -0.833008 -44 -2.5s-28.333 -2.5 -31 -2.5v615c-35.333 0 -66.166 -1.16699 -92.499 -3.5s-57.5 -5.83301 -93.5 -10.5l3.5 24.5
c1 7 1.5 13.167 1.5 18.5c0 9.33301 -0.666992 17.5 -2 24.5s-2.33301 12.833 -3 17.5h515l-3.5 -24.5c-1 -7 -1.5 -12.833 -1.5 -17.5c0 -10 0.666992 -18.5 2 -25.5s2.33301 -12.833 3 -17.5c-48.667 6 -78 9.33301 -88 10c-30 2.66699 -60.333 4 -91 4z" />
    <glyph glyph-name="U" unicode="U" horiz-adv-x="778" 
d="M89 273l0.00195312 408.001c11.333 0 26 -0.833008 44 -2.5s28.333 -2.5 31 -2.5c11.333 0 20.666 0.333008 27.999 1c28.667 2.66699 44.334 4 47.001 4v-284v-45c0 -25.333 0.166992 -50.333 0.5 -75s2.83301 -49.5 7.5 -74.5s10.167 -45.333 16.5 -61
s18.166 -31.834 35.499 -48.501c30.667 -28.667 68.667 -43 114 -43c47.333 0 84.333 9 111 27s49 49.333 67 94c8 19.333 13 46.666 15 81.999s3 77 3 125v303l40 -3l40 3v-356c0 -73.333 -4.66699 -127 -14 -161c-14.667 -54 -45.334 -97 -92.001 -129
c-25.333 -18.667 -54.333 -32.167 -87 -40.5s-66.667 -12.5 -102 -12.5c-69.333 0 -128 11.667 -176 35c-58 28.667 -95.667 73 -113 133c-5.33301 18 -9.33301 37.833 -12 59.5s-4 42.834 -4 63.501z" />
    <glyph glyph-name="V" unicode="V" horiz-adv-x="667" 
d="M371 -5l-24.501 3.49902c-7 1 -12.833 1.5 -17.5 1.5c-10 0 -18.5 -0.666992 -25.5 -2s-12.833 -2.33301 -17.5 -3l-86 231.5l-89 227.5l-93 227c12.667 0 29.5 -0.833008 50.5 -2.5s33.5 -2.5 37.5 -2.5c12.667 0 29.5 0.833008 50.5 2.5s33.5 2.5 37.5 2.5
c20.667 -69.333 48.667 -151.666 84 -246.999l93 -248l67 164c22 54.667 43 109.667 63 165l57 166l46 -3l46 3l-98 -228.5l-93 -225.5c-31.333 -78.667 -60.666 -156 -87.999 -232z" />
    <glyph glyph-name="W" unicode="W" horiz-adv-x="1000" 
d="M24 652l-9.00195 29.001c10 0 25 -0.833008 45 -2.5s32.667 -2.5 38 -2.5c12 0 27.667 0.833008 47 2.5s31 2.5 35 2.5c21.333 -90 42.833 -175.167 64.5 -255.5l67.5 -244.5l59.5 170.5l58.5 161.5c22.667 64.667 41 120.667 55 168l50 -3l50 3
c13.333 -50 29.666 -104.167 48.999 -162.5l57 -170.5c22 -65.333 39.667 -121 53 -167l52 165c25.333 80.667 42.333 136 51 166c14 48.667 29 105 45 169l47 -3l46 3l-123 -346.5c-38.667 -113 -75.334 -226.167 -110.001 -339.5l-29.5 3.5
c-8.33301 1 -15.166 1.5 -20.499 1.5c-10.667 0 -20.5 -0.666992 -29.5 -2s-16.167 -2.33301 -21.5 -3c-16 58.667 -31.667 112.667 -47 162s-33.666 104.333 -54.999 165c-5.33301 16 -24.666 69.667 -57.999 161l-56.5 -160l-57.5 -160l-59 -168l-29.5 3.5
c-8.33301 1 -15.166 1.5 -20.499 1.5c-10.667 0 -20.5 -0.666992 -29.5 -2s-16.167 -2.33301 -21.5 -3c-16 61.333 -36.333 134.666 -61 219.999l-64.5 216.5z" />
    <glyph glyph-name="X" unicode="X" horiz-adv-x="611" 
d="M587 681l-96.998 -136.002l-116 -165l13 -23l99 -177c36 -65.333 68.333 -127 97 -185c-12.667 0 -23.334 0.333008 -32.001 1c-33.333 2.66699 -51.666 4 -54.999 4c-11.333 0 -27.333 -0.833008 -48 -2.5s-33.334 -2.5 -38.001 -2.5l-65 128l-67 127l-92 -144
c-6 -9.33301 -17.333 -28.666 -34 -57.999c-12 -20.667 -21.333 -37.667 -28 -51l-50 3l-50 -3l111 159l105 157l-205 368c12 0 28.667 -0.833008 50 -2.5s34.333 -2.5 39 -2.5c12.667 0 29.5 0.833008 50.5 2.5s33.833 2.5 38.5 2.5
c17.333 -37.333 42.666 -87.666 75.999 -150.999l48 -91l151 242l49 -3z" />
    <glyph glyph-name="Y" unicode="Y" horiz-adv-x="611" 
d="M233 -5l-0.00292969 288.999c-20.667 35.333 -47.667 84.333 -81 147l-134 250c12.667 0 29.834 -0.833008 51.501 -2.5s34.5 -2.5 38.5 -2.5c12.667 0 29.834 0.833008 51.501 2.5s34.5 2.5 38.5 2.5l85 -178c16.667 -35.333 29 -60.333 37 -75
c12.667 -24 21.334 -39 26.001 -45c17.333 21.333 42.333 66 75 134c15.333 31.333 40.333 86 75 164l49 -3l48 3l-72 -126l-72 -124c-20.667 -37.333 -42.667 -79.666 -66 -126.999v-309c-11.333 0 -20.666 0.333008 -27.999 1c-28.667 2.66699 -44.334 4 -47.001 4
c-11.333 0 -26 -0.833008 -44 -2.5s-28.333 -2.5 -31 -2.5z" />
    <glyph glyph-name="Z" unicode="Z" horiz-adv-x="611" 
d="M586 0l-562.001 -0.000976562v17l181 288l173 291v13c-44 0 -88 -1 -132 -3c-117.333 -5.33301 -177.666 -8 -180.999 -8l3.5 24.5c1 7 1.5 12.833 1.5 17.5c0 8.66699 -0.5 15.834 -1.5 21.501l-3.5 19.5h522v-17l-120 -191l-115 -195l-112 -196v-10
c48 0 111.667 1.83301 191 5.5s131 5.5 155 5.5l-3.5 -24.5c-1 -7 -1.5 -12.5 -1.5 -16.5c0 -9.33301 0.666992 -17.5 2 -24.5s2.33301 -12.833 3 -17.5z" />
    <glyph glyph-name="bracketleft" unicode="[" horiz-adv-x="333" 
d="M83 -130v885h210v-55l-110 5v-785l110 5v-55h-210z" />
    <glyph glyph-name="backslash" unicode="\" horiz-adv-x="520" 
d="M124 755l371.999 -755h-35.5c-11.667 -0 -23.167 0.333008 -34.5 1c-13.333 0 -23.333 -0.333008 -30 -1l-372 755c12 0 23.833 -0.166992 35.5 -0.5s23.167 -0.5 34.5 -0.5h19c4.66699 0.666992 8.33398 1 11.001 1z" />
    <glyph glyph-name="bracketright" unicode="]" horiz-adv-x="333" 
d="M250 755v-885h-210v55l110 -5v785l-110 -5v55h210z" />
    <glyph glyph-name="asciicircum" unicode="^" horiz-adv-x="606" 
d="M147 278h-95l206 403h90l206 -403h-95l-156 294z" />
    <glyph glyph-name="underscore" unicode="_" horiz-adv-x="500" 
d="M500 -160h-500v38h500v-38z" />
    <glyph glyph-name="grave" unicode="`" horiz-adv-x="333" 
d="M118 694l129 -149.001h-56l-131 81c-20 13.333 -31.333 21 -34 23c-12 10.667 -18 23 -18 37c0 12.667 4.16699 23.167 12.5 31.5s18.833 12.5 31.5 12.5c14.667 0 26.5 -2.66699 35.5 -8s19.167 -14.666 30.5 -27.999z" />
    <glyph glyph-name="a" unicode="a" horiz-adv-x="500" 
d="M295 160v96.999c-20 -7.33301 -36 -13 -48 -17c-22 -8 -39 -16.833 -51 -26.5s-20.333 -21.167 -25 -34.5s-7 -29.333 -7 -48c0 -22.667 4.16699 -41.667 12.5 -57s22.5 -23 42.5 -23c28 0 48.333 11.667 61 35c10 18.667 15 43.334 15 74.001zM433 354.999
l0.00488281 -272c0 -18.667 3.5 -31.167 10.5 -37.5s20.5 -9.5 40.5 -9.5v-23c-12.667 -6 -27.834 -12 -45.501 -18s-32.5 -9 -44.5 -9c-22.667 0 -42.834 6.5 -60.501 19.5s-30.5 30.833 -38.5 53.5c-13.333 -23.333 -31.333 -41.333 -54 -54s-47.334 -19 -74.001 -19
c-42.667 0 -76.667 11 -102 33c-27.333 24 -41 57 -41 99c0 45.333 14.667 79 44 101c24 18 70.333 35.333 139 52c15.333 4 27.666 7.33301 36.999 10c14.667 4.66699 26.667 10 36 16c5.33301 5.33301 9.16602 11 11.499 17s3.5 13.333 3.5 22
c0 23.333 -9.83301 43.833 -29.5 61.5s-41.5 26.5 -65.5 26.5c-28.667 0 -56.334 -8 -83.001 -24c-22 -13.333 -35 -26 -39 -38h-7l-13 60c22.667 21.333 50.834 37.833 84.501 49.5s67.167 17.5 100.5 17.5c50 0 92 -9.66699 126 -29c42.667 -24 64 -59 64 -105z" />
    <glyph glyph-name="b" unicode="b" 
d="M192 234c0 -56 3.33398 -97.333 10.001 -124c13.333 -52.667 39.333 -79 78 -79c30.667 0 54.167 18.333 70.5 55s24.5 87 24.5 151c0 52 -3.66699 90.667 -11 116c-13.333 47.333 -39.333 71 -78 71s-65.334 -23.667 -80.001 -71c-9.33301 -29.333 -14 -69 -14 -119z
M54.001 0v754.999c11.333 -1.33301 24.166 -2.5 38.499 -3.5s24.5 -1.5 30.5 -1.5c14.667 0 28 0.666992 40 2s21.667 2.33301 29 3v-345c13.333 24.667 31.833 44 55.5 58s49.834 21 78.501 21c62 0 111.333 -24.333 148 -73c32.667 -43.333 49 -97.333 49 -162
c0 -36.667 -4 -70 -12 -100c-10 -36.667 -25 -66.667 -45 -90c-44 -52 -100.333 -78 -169 -78c-28 0 -54.167 6 -78.5 18s-43.833 29.333 -58.5 52c-16.667 -9.33301 -31.667 -18.666 -45 -27.999l-41 -28h-20z" />
    <glyph glyph-name="c" unicode="c" horiz-adv-x="500" 
d="M480 444l-37.998 -104h-24c-4 30 -14.333 54.333 -31 73c-18.667 20.667 -42.334 31 -71.001 31c-42 0 -74.333 -23.333 -97 -70c-17.333 -36 -26 -78 -26 -126c0 -62.667 12.167 -111.167 36.5 -145.5s62.833 -51.5 115.5 -51.5c20 0 39.167 4.16699 57.5 12.5
s33.833 19.833 46.5 34.5l17 -14l-24 -60c-12 -10.667 -32.333 -19.667 -61 -27s-53.334 -11 -74.001 -11c-79.333 0 -142.333 20.667 -189 62c-48.667 43.333 -73 103.666 -73 180.999c0 80 24 143.333 72 190s111.667 70 191 70c32 0 62.833 -3.66699 92.5 -11
s56.167 -18.666 79.5 -33.999z" />
    <glyph glyph-name="d" unicode="d" 
d="M498 755v-760.001l-38.5 3.5c-11 1 -20.167 1.5 -27.5 1.5c-15.333 0 -28.5 -0.666992 -39.5 -2s-20.167 -2.33301 -27.5 -3v88c-23.333 -64.667 -69 -97 -137 -97c-68.667 0 -120 25.667 -154 77c-28.667 43.333 -43 101.333 -43 174c0 69.333 15.667 127.333 47 174
c34.667 52 83.334 78 146.001 78c31.333 0 58.333 -5.66699 81 -17s41 -29.666 55 -54.999v338c11.333 -1.33301 24.166 -2.5 38.499 -3.5s24.5 -1.5 30.5 -1.5c14.667 0 28 0.666992 40 2s21.667 2.33301 29 3zM275 423.999c-37.333 0 -64 -23.667 -80 -71
c-10.667 -32 -16 -71.667 -16 -119s4.33301 -85 13 -113c14.667 -46.667 39.667 -70 75 -70c38 0 65 24.333 81 73c10.667 32 16 72.333 16 121c0 45.333 -4.66699 82.333 -14 111c-14.667 45.333 -39.667 68 -75 68z" />
    <glyph glyph-name="e" unicode="e" horiz-adv-x="500" 
d="M183 285l148.001 -0.000976562c0 41.333 -3.33301 74.333 -10 99c-10.667 40 -29.334 60 -56.001 60c-32 0 -54.667 -19.667 -68 -59c-9.33301 -27.333 -14 -60.666 -14 -99.999zM469.001 236.999l-286 0.000976562c0 -58 9.66699 -102 29 -132
c22.667 -36 59.334 -54 110.001 -54c20.667 0 41 4 61 12s38.667 19 56 33l12 -9l-22 -56c-42.667 -30 -90.334 -45 -143.001 -45c-82 0 -144.333 23 -187 69s-64 110.667 -64 194c0 71.333 20.5 129.166 61.5 173.499s96.833 66.5 167.5 66.5c74 0 127.667 -24 161 -72
c29.333 -42 44 -102 44 -180z" />
    <glyph glyph-name="f" unicode="f" horiz-adv-x="315" 
d="M83 416l-74.001 0.00195312c1.33301 6.66699 2 17 2 31v12c0 3.33301 -0.666992 10.333 -2 21h74c4.66699 32 10.834 61.333 18.501 88s18.834 52.667 33.501 78c21.333 37.333 44.333 64.666 69 81.999s54.667 26 90 26h19c5.33301 0 15 -1.33301 29 -4
c-2 -11.333 -3.33301 -25.833 -4 -43.5s-1 -27.834 -1 -30.501v-27.5c0 -9 0.333008 -17.5 1 -25.5l-13 -5c-16 8 -31.167 14.667 -45.5 20s-28.5 8 -42.5 8c-14.667 0 -25.834 -0.5 -33.501 -1.5s-14.834 -4.83301 -21.501 -11.5l-6 -6c-4 -4.66699 -6 -9.66699 -6 -15
c0 -12 5.66699 -33.667 17 -65c8 -22.667 17 -45 27 -67h101c-0.666992 -6 -1.16699 -12.167 -1.5 -18.5s-0.5 -10.833 -0.5 -13.5c0 -5.33301 0.666992 -16 2 -32h-94v-421c-11.333 1.33301 -19.666 2 -24.999 2c-23.333 2 -38 3 -44 3c-14.667 -0 -28 -0.666992 -40 -2
s-21.667 -2.33301 -29 -3v421z" />
    <glyph glyph-name="g" unicode="g" horiz-adv-x="500" 
d="M123 -74c-2 -4.66699 -3.33301 -10.3301 -4 -16.9971s-1 -13.334 -1 -20.001c0 -36.667 13.667 -65 41 -85c24.667 -18 55.667 -27 93 -27c36 0 65.5 11.167 88.5 33.5s34.5 48.166 34.5 77.499c0 42 -15.333 70 -46 84c-19.333 8.66699 -53.333 13 -102 13
c-29.333 0 -51 -3 -65 -9c-20 -8.66699 -33 -25.334 -39 -50.001zM481 486.004l-1.00195 -45.9951l-90 3c35.333 -30 53 -67.333 53 -112c0 -54 -20 -95.333 -60 -124c-37.333 -26.667 -87.666 -40 -150.999 -40h-17c-13.333 0 -22.333 -2.5 -27 -7.5
s-7.83398 -9.5 -9.50098 -13.5s-2.5 -8 -2.5 -12c0 -18.667 7.33301 -32.167 22 -40.5s34.334 -12.5 59.001 -12.5l86 -3c52 0 90 -12 114 -36c21.333 -21.333 32 -52.333 32 -93c0 -68.667 -27.333 -122.334 -82 -161.001c-48.667 -34.667 -109 -52 -181 -52
c-51.333 0 -94.666 9 -129.999 27c-46 23.333 -69 58.666 -69 105.999c0 26.667 7.33301 49.667 22 69s34.667 33.666 60 42.999l15 9l-7 8c-32.667 11.333 -49 36 -49 74c0 21.333 8.5 42.166 25.5 62.499s34.5 32.833 52.5 37.5l15 4c-84.667 20 -127 73.333 -127 160
c0 53.333 19.833 92.166 59.5 116.499s94.5 36.5 164.5 36.5l102 -3h121zM173.998 319.009c0 -38.667 6.33301 -68 19 -88c10.667 -17.333 25.667 -26 45 -26c27.333 0 46 16.333 56 49c6 19.333 9 47.333 9 84c0 29.333 -3.33301 53.333 -10 72c-10 28 -27 42 -51 42
c-28 0 -47.333 -16.333 -58 -49c-6.66699 -20 -10 -48 -10 -84z" />
    <glyph glyph-name="h" unicode="h" 
d="M193 755l0.00195312 -344.001c19.333 22 41.666 40 66.999 54c28 16 55 24 81 24c46.667 0 85.667 -15.333 117 -46c17.333 -16.667 28.666 -34.667 33.999 -54s8 -43.666 8 -72.999v-321c-11.333 1.33301 -19.666 2 -24.999 2c-23.333 2 -38 3 -44 3
c-14.667 -0 -28 -0.666992 -40 -2s-21.667 -2.33301 -29 -3v249c0 54 -4.66699 92.333 -14 115c-12.667 30.667 -35.334 46 -68.001 46c-40 0 -66 -22 -78 -66c-6 -21.333 -9 -59.333 -9 -114v-230c-11.333 1.33301 -19.666 2 -24.999 2c-23.333 2 -38 3 -44 3
c-14.667 -0 -28 -0.666992 -40 -2s-21.667 -2.33301 -29 -3v760c11.333 -1.33301 24.166 -2.5 38.499 -3.5s24.5 -1.5 30.5 -1.5c14.667 0 28 0.666992 40 2s21.667 2.33301 29 3z" />
    <glyph glyph-name="i" unicode="i" horiz-adv-x="278" 
d="M70 -5v485c11.333 -1.33301 24.166 -2.5 38.499 -3.5s24.5 -1.5 30.5 -1.5c14.667 0 28 0.666992 40 2s21.667 2.33301 29 3v-485c-11.333 1.33301 -19.666 2 -24.999 2c-23.333 2 -38 3 -44 3c-14.667 -0 -28 -0.666992 -40 -2s-21.667 -2.33301 -29 -3zM60 663
c0 20.667 7.66797 39 23.001 55s33.666 24 54.999 24s40 -7.66699 56 -23s24 -34 24 -56c0 -21.333 -7.83301 -39.833 -23.5 -55.5s-34.5 -23.5 -56.5 -23.5s-40.5 7.83301 -55.5 23.5s-22.5 34.167 -22.5 55.5z" />
    <glyph glyph-name="j" unicode="j" horiz-adv-x="278" 
d="M209 480l0.00195312 -488.001c0 -34 -5.33301 -61.833 -16 -83.5s-30.334 -43.5 -59.001 -65.5c-19.333 -15.333 -40 -27.166 -62 -35.499s-45 -12.5 -69 -12.5l-11 34c32.667 10 54.667 27.667 66 53c8.66699 20 13 52 13 96v502
c11.333 -1.33301 24.166 -2.5 38.499 -3.5s24.5 -1.5 30.5 -1.5c14.667 0 28 0.666992 40 2s21.667 2.33301 29 3zM137.002 583.999c-21.333 0 -39.333 7.66699 -54 23s-22 33.333 -22 54c0 22.667 7.16699 41.834 21.5 57.501s32.5 23.5 54.5 23.5
c24 0 43.667 -7.33301 59 -22s23 -34.334 23 -59.001c0 -22 -8 -40.333 -24 -55s-35.333 -22 -58 -22z" />
    <glyph glyph-name="k" unicode="k" horiz-adv-x="500" 
d="M59 -5l-0.00292969 760.001c11.333 -1.33301 24.166 -2.5 38.499 -3.5s24.5 -1.5 30.5 -1.5c14.667 0 28 0.666992 40 2s21.667 2.33301 29 3v-489c2 -2 5 -2.33301 9 -1c28.667 28.667 60.667 63.334 96 104.001l96 111l24.5 -3.5c7 -1 13.167 -1.5 18.5 -1.5
c9.33301 0 17.5 0.666992 24.5 2s12.833 2.33301 17.5 3v-7c-16 -20 -36.333 -42.667 -61 -68c-67.333 -68 -102.666 -104 -105.999 -108l80 -128l49 -80c16.667 -27.333 33 -56 49 -86v-8c-10.667 0 -25.167 0.833008 -43.5 2.5s-29.166 2.5 -32.499 2.5
c-10.667 0 -25.167 -0.833008 -43.5 -2.5s-29.166 -2.5 -32.499 -2.5c-19.333 37.333 -37.666 70.666 -54.999 99.999c-22.667 38.667 -43.334 72 -62.001 100l-12 18.5c-4 6.33301 -9.33301 11.166 -16 14.499v-233c-11.333 1.33301 -19.666 2 -24.999 2
c-23.333 2 -38 3 -44 3c-14.667 -0 -28 -0.666992 -40 -2s-21.667 -2.33301 -29 -3z" />
    <glyph glyph-name="l" unicode="l" horiz-adv-x="278" 
d="M208 755v-760c-11.333 1.33301 -19.666 2 -24.999 2c-23.333 2 -38 3 -44 3c-14.667 -0 -28 -0.666992 -40 -2s-21.667 -2.33301 -29 -3v760c11.333 -1.33301 24.166 -2.5 38.499 -3.5s24.5 -1.5 30.5 -1.5c14.667 0 28 0.666992 40 2s21.667 2.33301 29 3z" />
    <glyph glyph-name="m" unicode="m" horiz-adv-x="833" 
d="M53 -5l0.000976562 485c11.333 -1.33301 24.166 -2.5 38.499 -3.5s24.5 -1.5 30.5 -1.5c14.667 0 28 0.666992 40 2s21.667 2.33301 29 3v-75c14.667 24.667 35.5 44.834 62.5 60.501s55.167 23.5 84.5 23.5c31.333 0 58.666 -7.83301 81.999 -23.5
s40.333 -38.167 51 -67.5c18.667 28 40 49.667 64 65c27.333 17.333 56.666 26 87.999 26c55.333 0 95.666 -15.667 120.999 -47c23.333 -28.667 35 -71.334 35 -128.001v-319c-11.333 1.33301 -19.666 2 -24.999 2c-23.333 2 -38 3 -44 3c-14.667 -0 -28 -0.666992 -40 -2
s-21.667 -2.33301 -29 -3v271c0 55.333 -6.16699 92.333 -18.5 111s-30.5 28 -54.5 28c-32.667 0 -55.334 -10 -68.001 -30c-10 -16 -15 -41.667 -15 -77v-303c-11.333 1.33301 -19.666 2 -24.999 2c-23.333 2 -38 3 -44 3c-14.667 -0 -28 -0.666992 -40 -2
s-21.667 -2.33301 -29 -3v271c0 55.333 -6.16699 92.333 -18.5 111s-30.5 28 -54.5 28c-31.333 0 -53.666 -12.667 -66.999 -38c-10.667 -20 -16 -46.667 -16 -80v-292c-11.333 1.33301 -19.666 2 -24.999 2c-23.333 2 -38 3 -44 3c-14.667 -0 -28 -0.666992 -40 -2
s-21.667 -2.33301 -29 -3z" />
    <glyph glyph-name="n" unicode="n" 
d="M55 -5l-0.00292969 485c10.667 -1.33301 22.834 -2.5 36.501 -3.5s23.834 -1.5 30.501 -1.5c14.667 0 27.5 0.666992 38.5 2s20.167 2.33301 27.5 3v-74c22 25.333 44.667 45 68 59c27.333 16 56 24 86 24c59.333 0 101.333 -18.333 126 -55
c21.333 -31.333 32 -80 32 -146v-293c-11.333 1.33301 -19.666 2 -24.999 2c-23.333 2 -38 3 -44 3c-14.667 -0 -28 -0.666992 -40 -2s-21.667 -2.33301 -29 -3v249c0 54 -4.66699 92.333 -14 115c-12.667 30.667 -35.334 46 -68.001 46c-38 0 -63.333 -22 -76 -66
c-7.33301 -25.333 -11 -63.333 -11 -114v-230c-11.333 1.33301 -19.666 2 -24.999 2c-23.333 2 -38 3 -44 3c-14.667 -0 -28 -0.666992 -40 -2s-21.667 -2.33301 -29 -3z" />
    <glyph glyph-name="o" unicode="o" 
d="M276 -14c-74 0 -133 21.668 -177 65.001s-66 102 -66 176c0 80 21.5 143.667 64.5 191s102.833 71 179.5 71c76 0 136 -21.333 180 -64s66 -101.334 66 -176.001c0 -78 -21.333 -140.667 -64 -188c-45.333 -50 -106.333 -75 -183 -75zM283 444.001
c-37.333 0 -64.333 -20.667 -81 -62c-14 -35.333 -21 -86 -21 -152c0 -52 4.66699 -93 14 -123c15.333 -50.667 42.333 -76 81 -76c35.333 0 61.333 25 78 75c14 41.333 21 94.333 21 159c0 54 -6.66699 96 -20 126c-16 35.333 -40 53 -72 53z" />
    <glyph glyph-name="p" unicode="p" 
d="M282 51c30.667 3.33301 53.832 21.333 69.499 54s23.5 76 23.5 130c0 62 -6 107.667 -18 137c-14 34.667 -37 52 -69 52c-38 0 -65 -24.333 -81 -73c-10.667 -32.667 -16 -73 -16 -121c0 -46 4.66699 -83.333 14 -112c14.667 -44.667 40.334 -67 77.001 -67zM55.998 -259
l-0.00488281 739.001c10.667 -1.33301 22.834 -2.5 36.501 -3.5s23.834 -1.5 30.501 -1.5c14.667 0 27.5 0.666992 38.5 2s20.167 2.33301 27.5 3v-88c12 30.667 29.5 54.5 52.5 71.5s51.167 25.5 84.5 25.5c66.667 0 117.334 -24.667 152.001 -74
c30 -42.667 45 -99 45 -169c0 -84.667 -20.333 -150.334 -61 -197.001c-36.667 -42 -83 -63 -139 -63c-31.333 0 -57.166 6.5 -77.499 19.5s-37.5 30.5 -51.5 52.5v-317c-11.333 1.33301 -19.666 2 -24.999 2c-23.333 2 -38 3 -44 3c-14.667 0 -28 -0.666992 -40 -2
s-21.667 -2.33301 -29 -3z" />
    <glyph glyph-name="q" unicode="q" 
d="M370 392l-0.00292969 87.999c10.667 -1.33301 22.834 -2.5 36.501 -3.5s23.834 -1.5 30.501 -1.5c14.667 0 27.5 0.666992 38.5 2s20.167 2.33301 27.5 3v-739c-11.333 1.33301 -19.666 2 -24.999 2c-23.333 2 -38 3 -44 3c-14.667 0 -28 -0.666992 -40 -2
s-21.667 -2.33301 -29 -3v317c-12.667 -20 -28.667 -36.333 -48 -49c-24 -15.333 -51 -23 -81 -23c-61.333 0 -110 22.333 -146 67s-54 104.334 -54 179.001c0 79.333 15 141 45 185c32.667 48 81 72 145 72c69.333 0 117.333 -32.333 144 -97zM183.997 242.999
c0 -11.333 0.167969 -20.167 0.500977 -26.5s1.5 -20.833 3.5 -43.5c0 -28.667 7.33301 -55 22 -79c17.333 -28.667 39.666 -43 66.999 -43c36 0 61.333 21.667 76 65c10 30 15 67.333 15 112c0 48.667 -5 89 -15 121c-16 50 -43.333 75 -82 75
c-35.333 0 -60 -22.667 -74 -68c-8.66699 -28 -13 -65.667 -13 -113z" />
    <glyph glyph-name="r" unicode="r" horiz-adv-x="389" 
d="M67 -5v485.001c11.333 -1.33301 24.166 -2.5 38.499 -3.5s24.5 -1.5 30.5 -1.5c14.667 0 28 0.666992 40 2s21.667 2.33301 29 3v-124c12 41.333 29.333 72.666 52 93.999c28 26 65 39 111 39c-2 -17.333 -3.33301 -38.833 -4 -64.5s-1 -49.5 -1 -71.5l-9 -8
c-6 4.66699 -13.667 8 -23 10s-18.666 3 -27.999 3c-22.667 0 -42.167 -5.83301 -58.5 -17.5s-27.5 -27.834 -33.5 -48.501c-2.66699 -7.33301 -4.33398 -17.166 -5.00098 -29.499s-1 -26.833 -1 -43.5v-43v-181c-11.333 1.33301 -19.666 2 -24.999 2c-23.333 2 -38 3 -44 3
c-14.667 -0 -28 -0.666992 -40 -2s-21.667 -2.33301 -29 -3z" />
    <glyph glyph-name="s" unicode="s" horiz-adv-x="389" 
d="M46 122l24.999 0.00195312c9.33301 -26 24 -46.667 44 -62s43.333 -23 70 -23c18.667 0 36.167 5.83301 52.5 17.5s24.5 26.167 24.5 43.5c0 24.667 -19.667 45.667 -59 63c-66 29.333 -103 46.666 -111 51.999c-40.667 28.667 -61 67.667 -61 117
s16.667 88.166 50 116.499s74 42.5 122 42.5c25.333 0 51 -4.16699 77 -12.5s48.667 -19.833 68 -34.5l-24 -88h-28c-4 22.667 -15.167 42.334 -33.5 59.001s-38.833 25 -61.5 25c-20 0 -37.333 -4.83301 -52 -14.5s-22 -24.167 -22 -43.5
c0 -24.667 20.333 -45.334 61 -62.001c64.667 -26 102.334 -42.667 113.001 -50c40.667 -28 61 -68.667 61 -122c0 -47.333 -17.167 -85.833 -51.5 -115.5s-81.5 -44.5 -141.5 -44.5c-52 0 -98 13.667 -138 41z" />
    <glyph glyph-name="t" unicode="t" horiz-adv-x="333" 
d="M222 416l-0.000976562 -285c0 -32.667 2.83301 -55.834 8.5 -69.501s19.167 -20.5 40.5 -20.5c12.667 0 27.334 2.33301 44.001 7v-39c-40.667 -15.333 -75.334 -23 -104.001 -23c-48 0 -82 15.333 -102 46c-16.667 25.333 -25 64 -25 116v268h-68c1.33301 6 2 12 2 18
v14v11v10c-1.33301 4.66699 -2 8.33398 -2 11.001h68v113c16.667 6.66699 38.334 16 65.001 28l73 34v-175h85c-0.666992 -6 -1.16699 -12.167 -1.5 -18.5s-0.5 -10.833 -0.5 -13.5v-15c1.33301 -8 2 -13.667 2 -17h-85z" />
    <glyph glyph-name="u" unicode="u" 
d="M496 480l0.000976562 -484.999l-38.5 3.5c-11 1 -20.167 1.5 -27.5 1.5c-15.333 0 -28.5 -0.666992 -39.5 -2s-20.167 -2.33301 -27.5 -3v73c-28 -30 -50.333 -50 -67 -60c-24 -14.667 -52.333 -22 -85 -22c-28 0 -53.5 4.83301 -76.5 14.5s-42.167 25.5 -57.5 47.5
c-10 14 -16.833 31 -20.5 51s-5.5 41.667 -5.5 65v39v277c11.333 -1.33301 24.166 -2.5 38.499 -3.5s24.5 -1.5 30.5 -1.5c14.667 0 28 0.666992 40 2s21.667 2.33301 29 3v-276c0 -21.333 0.5 -37.833 1.5 -49.5s4.16699 -22.834 9.5 -33.501
c6.66699 -16.667 15.834 -29.5 27.501 -38.5s26.167 -13.5 43.5 -13.5c38 0 63.333 17 76 51c7.33301 20 11 53 11 99v261c11.333 -1.33301 24.166 -2.5 38.499 -3.5s24.5 -1.5 30.5 -1.5c14.667 0 28 0.666992 40 2s21.667 2.33301 29 3z" />
    <glyph glyph-name="v" unicode="v" horiz-adv-x="500" 
d="M170 480l112.004 -346.999l63 172c23.333 65.333 43 123.666 59 174.999l40 -3l39 3c0.666992 -4 -0.166016 -8.5 -2.49902 -13.5s-3.83301 -8.5 -4.5 -10.5c-8.66699 -18 -19.334 -42 -32.001 -72l-19 -45l-68 -168c-24.667 -62.667 -45.667 -121.334 -63 -176.001
l-29.5 3.5c-8.33301 1 -15.5 1.5 -21.5 1.5c-10.667 0 -20.5 -0.666992 -29.5 -2s-16.167 -2.33301 -21.5 -3l-56 161c-28.667 82.667 -47.667 136.334 -57 161.001l-63 163c11.333 0 26.166 -0.833008 44.499 -2.5s29.166 -2.5 32.499 -2.5
c11.333 0 20.666 0.333008 27.999 1c29.333 2.66699 45.666 4 48.999 4z" />
    <glyph glyph-name="w" unicode="w" horiz-adv-x="778" 
d="M164 480l99.999 -342.999c23.333 71.333 41.333 128 54 170c15.333 51.333 31.333 109 48 173l29.5 -3c13 -1.33301 21.833 -2 26.5 -2c12.667 0 22.834 0.5 30.501 1.5l25.5 3.5l102 -343c37.333 110.667 71.333 225 102 343l40 -3l39 3
c-32.667 -83.333 -61.667 -161.333 -87 -234c-32 -90.667 -59 -174.334 -81 -251.001l-31.5 3.5c-9 1 -16.167 1.5 -21.5 1.5c-12 -0 -22.5 -0.666992 -31.5 -2s-16.5 -2.33301 -22.5 -3l-101 331l-64 -200.5c-14.667 -47 -27.667 -90.5 -39 -130.5l-31.5 3.5
c-9 1 -16.5 1.5 -22.5 1.5c-12.667 -0 -23.5 -0.666992 -32.5 -2s-16.5 -2.33301 -22.5 -3l-48 162c-14 46 -31.333 100 -52 162l-56 161c10 0 23.667 -0.833008 41 -2.5s28 -2.5 32 -2.5c9.33301 0 23 0.833008 41 2.5s29 2.5 33 2.5z" />
    <glyph glyph-name="x" unicode="x" horiz-adv-x="500" 
d="M312 -5l-96.001 173.999l-55 -84l-56 -88l-40 3l-40 -3l159 221l-94 161l-61 101c11.333 0 26.666 -0.833008 45.999 -2.5s31 -2.5 35 -2.5c12 0 27.667 0.833008 47 2.5s31 2.5 35 2.5l43.5 -80.5l42.5 -76.5l53 77c15.333 22.667 32.333 49.334 51 80.001l45 -3l45 3
l-85 -105l-78 -101l55 -94l111 -185c-11.333 0 -26.666 0.833008 -45.999 2.5s-31.333 2.5 -36 2.5c-11.333 0 -26.666 -0.833008 -45.999 -2.5s-31 -2.5 -35 -2.5z" />
    <glyph glyph-name="y" unicode="y" horiz-adv-x="500" 
d="M94 -259l127.003 258l-202 481c10.667 0 25.167 -0.833008 43.5 -2.5s29.166 -2.5 32.499 -2.5c10.667 0 25.167 0.833008 43.5 2.5s29.166 2.5 32.499 2.5l58 -157l62 -154l38 102l39 103c13.333 34.667 25.666 70 36.999 106l41 -3l41 3l-101 -229l-71 -165.5
l-71 -171.5c-20.667 -51.333 -42.667 -109 -66 -173l-42 3z" />
    <glyph glyph-name="z" unicode="z" horiz-adv-x="500" 
d="M470 480v-39l-88 -124l-90 -128l-87 -131c38 0 76.333 1 115 3c90 4.66699 137.333 7 142 7c-1.33301 -8 -2.5 -14.667 -3.5 -20s-1.5 -10 -1.5 -14c0 -3.33301 0.5 -8 1.5 -14l3.5 -20h-432v41l133 189l129 192c-36.667 0 -80 -1.66699 -130 -5s-83.333 -5 -100 -5
c1.33301 8 2.5 14.667 3.5 20s1.5 10 1.5 14c0 6.66699 -0.666992 13.667 -2 21c-2 6 -3 10.333 -3 13h408z" />
    <glyph glyph-name="braceleft" unicode="{" horiz-adv-x="333" 
d="M116 427l-0.00390625 187.994c0 27.333 2 47.666 6 60.999c6.66699 22 19 38.833 37 50.5s37.5 19.334 58.5 23.001s44.5 5.5 70.5 5.5h20c-36 -9.33301 -60.333 -23.166 -73 -41.499s-19 -46.5 -19 -84.5v-185c0 -39.333 -6.33301 -68.333 -19 -87
c-15.333 -22 -42.666 -37.667 -81.999 -47c40.667 -8.66699 68.334 -25 83.001 -49c12 -19.333 18 -49.666 18 -90.999v-175c0 -36 6.66699 -63.833 20 -83.5s37.333 -33.5 72 -41.5c-73.333 0 -122.666 9 -147.999 27c-29.333 20.667 -44 63.334 -44 128.001v167
c0 36.667 -5.33301 62.667 -16 78c-12.667 18 -37.667 31.333 -75 40c14 3.33301 26.5 7.83301 37.5 13.5s20.833 13.334 29.5 23.001s14.834 19.834 18.501 30.501s5.5 27.334 5.5 50.001z" />
    <glyph glyph-name="bar" unicode="|" horiz-adv-x="606" 
d="M260 0v755h86v-755h-86z" />
    <glyph glyph-name="braceright" unicode="}" horiz-adv-x="333" 
d="M217 598l0.00195312 -165.999c0 -36.667 5.83301 -63.334 17.5 -80.001s36.167 -29 73.5 -37c-14 -3.33301 -26.5 -7.83301 -37.5 -13.5s-21.5 -14.167 -31.5 -25.5s-16.167 -22.5 -18.5 -33.5s-3.5 -25.833 -3.5 -44.5v-188c0 -27.333 -2 -47.666 -6 -60.999
c-6.66699 -22 -19.667 -39.167 -39 -51.5s-42.333 -20.5 -69 -24.5c-14.667 -2 -40.667 -3 -78 -3c36 8.66699 60.333 22.167 73 40.5s19 46.5 19 84.5v186c0 39.333 6.83301 69.166 20.5 89.499s40.5 35.166 80.5 44.499c-40.667 8.66699 -68.334 24.667 -83.001 48
c-12 19.333 -18 50 -18 92v175c0 35.333 -6.66699 63 -20 83s-37.333 34 -72 42c73.333 0 122.666 -9 147.999 -27c29.333 -21.333 44 -64.666 44 -129.999z" />
    <glyph glyph-name="asciitilde" unicode="~" horiz-adv-x="606" 
d="M507 349l48 -55c-18.667 -34 -37.667 -59.667 -57 -77c-26 -24 -55 -36 -87 -36c-22 0 -51.333 8 -88 24l-44 19c-14 6 -28.5 11.833 -43.5 17.5s-28.5 8.5 -40.5 8.5c-20.667 0 -40 -10 -58 -30c-9.33301 -10.667 -22 -30 -38 -58l-48 55c25.333 46.667 50.333 79 75 97
c21.333 15.333 44.666 23 69.999 23s64.333 -11.5 117 -34.5s86 -34.5 100 -34.5c19.333 0 38 9 56 27c12.667 12.667 25.334 30.667 38.001 54z" />
    <glyph glyph-name="c128" horiz-adv-x="1000" 
 />
    <glyph glyph-name="c129" horiz-adv-x="1000" 
 />
    <glyph glyph-name="c141" horiz-adv-x="1000" 
 />
    <glyph glyph-name="c142" horiz-adv-x="278" 
 />
    <glyph glyph-name="c143" horiz-adv-x="1000" 
 />
    <glyph glyph-name="c144" 
d="M194 479l-0.000976562 -303.998c33.333 42 68 90 104 144c27.333 41.333 60.666 94.666 99.999 159.999l52 -3l50 3v-483c-7.33301 0 -20.166 0.666992 -38.499 2s-28.5 2 -30.5 2c-11.333 0 -20 -0.166992 -26 -0.5s-20.333 -1.5 -43 -3.5v308
c-38.667 -49.333 -76 -101.333 -112 -156c-32 -48.667 -62.667 -99.334 -92 -152.001c-3.33301 0 -10.666 0.666992 -21.999 2s-20.666 2 -27.999 2c-12 -0 -22.833 -0.666992 -32.5 -2s-16.167 -2 -19.5 -2v483l43 -3c9.33301 -0.666992 18 -1 26 -1
c19.333 0 33.666 0.333008 42.999 1c12 2 20.667 3 26 3z" />
    <glyph glyph-name="c157" horiz-adv-x="1000" 
 />
    <glyph glyph-name="c158" horiz-adv-x="1000" 
 />
    <glyph glyph-name="nonbreakingspace" unicode="&#xa0;" horiz-adv-x="500" 
 />
    <glyph glyph-name="exclamdown" unicode="&#xa1;" horiz-adv-x="1000" 
 />
    <glyph glyph-name="cent" unicode="&#xa2;" horiz-adv-x="1000" 
 />
    <glyph glyph-name="sterling" unicode="&#xa3;" horiz-adv-x="1000" 
 />
    <glyph glyph-name="currency" unicode="&#xa4;" 
d="M50 155l48.001 48.001c-14 21.333 -24.5 43.166 -31.5 65.499s-10.5 45.5 -10.5 69.5c0 27.333 3.16699 52 9.5 74s17.166 43.667 32.499 65l-48 47l66 68l49 -48c20 14 42.333 24.667 67 32s49.667 11 75 11c48.667 0 93.334 -14.333 134.001 -43l48 48l66 -68l-48 -47
c29.333 -38 44 -84 44 -138c0 -25.333 -3.5 -49.5 -10.5 -72.5s-17.833 -44.167 -32.5 -63.5l48 -48l-66 -67l-48 48c-40.667 -29.333 -86.334 -44 -137.001 -44c-26.667 0 -51.5 3.33301 -74.5 10s-45.167 18 -66.5 34l-48 -48zM307.001 482.001
c-40.667 0 -75.167 -13.833 -103.5 -41.5s-42.5 -61.834 -42.5 -102.501c0 -39.333 14.333 -72.666 43 -99.999s62.667 -41 102 -41c38.667 0 71.667 14 99 42s41 61.667 41 101c0 37.333 -13.667 70.333 -41 99s-60 43 -98 43z" />
    <glyph glyph-name="yen" unicode="&#xa5;" 
d="M211 -5v167.001h-185v80h185v38l-29 52h-156v80h113l-82 161l-57 108c12.667 0 29.5 -0.833008 50.5 -2.5s33.167 -2.5 36.5 -2.5c13.333 0 24 0.333008 32 1c33.333 2.66699 51.666 4 54.999 4l82 -178l37.5 -77.5c11 -21.667 18.833 -35.834 23.5 -42.501
c16.667 21.333 41 66 73 134c18 38 42 92.667 72 164l48 -3l46 3l-58 -104l-97 -165h133v-80h-169l-16 -34v-56h185v-80h-185v-167c-11.333 1.33301 -19.666 2 -24.999 2c-23.333 2 -38 3 -44 3c-14.667 -0 -28 -0.666992 -40 -2s-21.667 -2.33301 -29 -3z" />
    <glyph glyph-name="brokenbar" unicode="&#xa6;" horiz-adv-x="606" 
d="M260 472v283h86v-283h-86zM260 0v283h86v-283h-86z" />
    <glyph glyph-name="section" unicode="&#xa7;" 
d="M105 33l17.998 -0.00390625c16.667 -33.333 37 -58.833 61 -76.5s53.333 -26.5 88 -26.5c24.667 0 47.5 7.66699 68.5 23s31.5 35 31.5 59c0 18 -5.33301 33 -16 45c-7.33301 8.66699 -20.666 18.334 -39.999 29.001c-10 5.33301 -39.333 18.666 -88 39.999
c-42 18 -78.333 37 -109 57c-16 10 -28 26.167 -36 48.5s-12 44.5 -12 66.5c0 26.667 8 52.834 24 78.501s36 46.5 60 62.5c-30.667 24.667 -46 56 -46 94c0 52 17.5 92.667 52.5 122s79.167 44 132.5 44c40 0 71.167 -3.16699 93.5 -9.5s49.5 -20.833 81.5 -43.5
c-10.667 -18.667 -18 -32 -22 -40l-21 -43h-13c-3.33301 20 -13.666 37.667 -30.999 53c-23.333 20 -53 30 -89 30c-21.333 0 -39.666 -6.66699 -54.999 -20s-23 -30.666 -23 -51.999c0 -19.333 9 -36.666 27 -51.999c7.33301 -6.66699 38.666 -23.667 93.999 -51l75 -38
c22 -12 38.333 -23.667 49 -35c26.667 -28 40 -60.667 40 -98c0 -26.667 -7.33301 -52 -22 -76c-12 -19.333 -29.667 -39.333 -53 -60c38.667 -26.667 58 -62.667 58 -108c0 -35.333 -11 -67.666 -33 -96.999s-50.333 -50.666 -85 -63.999c-11.333 -4 -27.5 -8 -48.5 -12
s-37.167 -6 -48.5 -6c-33.333 0 -65.333 4.16699 -96 12.5s-59 21.166 -85 38.499c9.33301 34.667 15.333 69.667 18 105zM394.998 185.996c8 8.66699 14.499 18.001 19.499 28.001s7.5 20.667 7.5 32c0 17.333 -9.33301 34 -28 50c-10 8 -41.333 25.333 -94 52l-60.5 30.5
c-19.667 10.333 -39.167 22.166 -58.5 35.499c-22 -17.333 -33 -39 -33 -65c0 -24.667 18 -47.667 54 -69c13.333 -8 42.333 -21.667 87 -41c14.667 -6.66699 29.334 -13 44.001 -19c21.333 -10 42 -21.333 62 -34z" />
    <glyph glyph-name="dieresis" unicode="&#xa8;" horiz-adv-x="500" 
d="M78 681l381 -0.00195312c-1.33301 -7.33301 -2.5 -15 -3.5 -23s-1.5 -14.667 -1.5 -20c0 -4.66699 0.666992 -11.667 2 -21s2.33301 -16.666 3 -21.999c-34.667 4.66699 -70 8.16699 -106 10.5s-78 3.5 -126 3.5v-216h105c18 0 35.5 0.666992 52.5 2
s40.5 3.66602 70.5 6.99902c-0.666992 -3.33301 -1.66699 -10 -3 -20s-2 -17.333 -2 -22s0.666992 -11.667 2 -21s2.33301 -16.666 3 -21.999c-39.333 5.33301 -80.333 8 -123 8h-105v-253c48 0 90 1.16699 126 3.5s71.333 5.83301 106 10.5
c-1.33301 -7.33301 -2.5 -15 -3.5 -23s-1.5 -14.667 -1.5 -20c0 -4.66699 0.666992 -11.667 2 -21s2.33301 -16.666 3 -21.999h-381v681zM365 884.998c16.667 0 31.333 -6.66699 44 -20s19 -28.666 19 -45.999s-6 -32.333 -18 -45s-27 -19 -45 -19
c-17.333 0 -32.666 6.33301 -45.999 19s-20 27.667 -20 45s6.66699 32.666 20 45.999s28.666 20 45.999 20zM153.999 754.998c-16 0 -30.999 6.66895 -44.999 20.002s-21 28 -21 44c0 17.333 6.66699 32.666 20 45.999s28.666 20 45.999 20c18 0 33.333 -6.33301 46 -19
s19 -28.334 19 -47.001c0 -17.333 -6.33301 -32.333 -19 -45s-28 -19 -46 -19z" />
    <glyph glyph-name="copyright" unicode="&#xa9;" horiz-adv-x="750" 
d="M374 -18c-96 0 -177.833 34.833 -245.5 104.5s-101.5 153.834 -101.5 252.501c0 100 33.667 185 101 255s149.333 105 246 105s179 -35 247 -105s102 -155 102 -255c0 -98.667 -34.167 -182.834 -102.5 -252.501s-150.5 -104.5 -246.5 -104.5zM374 644
c-80.667 0 -148.667 -29.667 -204 -89s-83 -131.333 -83 -216c0 -83.333 27.833 -154.5 83.5 -213.5s123.5 -88.5 203.5 -88.5c80.667 0 149 29.333 205 88s84 130 84 214c0 85.333 -27.833 157.5 -83.5 216.5s-124.167 88.5 -205.5 88.5zM502 216l6.99707 -3l-12 -48
c-15.333 -8.66699 -32.666 -15 -51.999 -19s-38.666 -6 -57.999 -6c-60.667 0 -110.5 17.167 -149.5 51.5s-58.5 80.166 -58.5 137.499c0 70 21.333 123.667 64 161c38.667 34 90.667 51 156 51c21.333 0 41.333 -2.16699 60 -6.5s36.667 -11.166 54 -20.499l-13 -58h-8
c-23.333 34.667 -54 52 -92 52c-42.667 0 -75.667 -18 -99 -54c-20 -31.333 -30 -70.333 -30 -117c0 -49.333 11.333 -88.833 34 -118.5s55.334 -44.5 98.001 -44.5c16.667 0 34.167 4 52.5 12s33.833 18 46.5 30z" />
    <glyph glyph-name="ordfeminine" unicode="&#xaa;" horiz-adv-x="1000" 
 />
    <glyph glyph-name="guillemotleft" unicode="&#xab;" horiz-adv-x="500" 
d="M84 266l79.999 122.002l47 75c10 -10 23 -19.667 39 -29l26 -15c-42 -52.667 -79.333 -103.334 -112 -152.001l70 -96.5c4 -5.66699 18.333 -23.834 43 -54.501c-11.333 -4.66699 -22.166 -10.667 -32.499 -18s-21.5 -16.333 -33.5 -27l-78 122zM231.999 266.002
l79.999 122.002l47 75c10 -10 23 -19.667 39 -29l26 -15c-42 -52.667 -79.333 -103.334 -112 -152.001l70 -96.5c4 -5.66699 18.333 -23.834 43 -54.501c-11.333 -4.66699 -22.166 -10.667 -32.499 -18s-21.5 -16.333 -33.5 -27l-78 122z" />
    <glyph glyph-name="logicalnot" unicode="&#xac;" horiz-adv-x="606" 
d="M469 114v196h-418v86h504v-282h-86z" />
    <glyph glyph-name="minus" unicode="&#xad;" horiz-adv-x="1000" 
 />
    <glyph glyph-name="registered" unicode="&#xae;" horiz-adv-x="750" 
d="M375 -18c-96 0 -178.001 35 -246.001 105s-102 155 -102 255c0 98.667 33.833 182.834 101.5 252.501s149.834 104.5 246.501 104.5c96 0 177.833 -34.833 245.5 -104.5s101.5 -153.834 101.5 -252.501c0 -100 -33.667 -185 -101 -255s-149.333 -105 -246 -105z
M374.999 644c-81.333 0 -149.666 -29.333 -204.999 -88s-83 -130 -83 -214c0 -84.667 27.667 -156.667 83 -216s123.666 -89 204.999 -89c80.667 0 148.667 29.667 204 89s83 131.333 83 216c0 84 -27.667 155.333 -83 214s-123.333 88 -204 88zM248.999 140
l0.000976562 401h149c34.667 0 61.667 -8.33301 81 -25s29 -40 29 -70c0 -28 -7.83301 -51.167 -23.5 -69.5s-37.834 -30.5 -66.501 -36.5l48 -82l51 -81l22 -37l-45 3l-45 -3l-104 188h-18v-188l-39 3zM327 504l0.000976562 -157c33.333 0 57.5 6.5 72.5 19.5
s22.5 34.5 22.5 64.5c0 31.333 -6.66699 52.333 -20 63c-8.66699 6.66699 -23.334 10 -44.001 10h-31z" />
    <glyph glyph-name="macron" unicode="&#xaf;" horiz-adv-x="1000" 
 />
    <glyph glyph-name="degree" unicode="&#xb0;" horiz-adv-x="400" 
d="M350 520c0 -41.333 -14.667 -76.666 -44 -105.999s-64.666 -44 -105.999 -44s-76.666 14.667 -105.999 44s-44 64.666 -44 105.999s14.667 76.666 44 105.999s64.666 44 105.999 44s76.666 -14.667 105.999 -44s44 -64.666 44 -105.999zM295 520
c0 26 -9.33203 48.333 -27.999 67s-41.334 28 -68.001 28c-25.333 0 -47.333 -9.33301 -66 -28s-28 -41 -28 -67c0 -26.667 9.16699 -49.167 27.5 -67.5s40.833 -27.5 67.5 -27.5s49.167 9.16699 67.5 27.5s27.5 40.833 27.5 67.5z" />
    <glyph glyph-name="plusminus" unicode="&#xb1;" horiz-adv-x="606" 
d="M260 365v140h86v-140h209v-86h-209v-145h-86v145h-209v86h209zM555 0h-504v86h504v-86z" />
    <glyph glyph-name="twosuperior" unicode="&#xb2;" horiz-adv-x="1000" 
 />
    <glyph glyph-name="threesuperior" unicode="&#xb3;" horiz-adv-x="1000" 
 />
    <glyph glyph-name="acute" unicode="&#xb4;" horiz-adv-x="333" 
d="M87 545l129 149c10 12 17 19.333 21 22c12 9.33301 27 14 45 14c12.667 0 23.167 -4.16699 31.5 -12.5s12.5 -18.833 12.5 -31.5c0 -14 -5.66699 -26 -17 -36c-3.33301 -2.66699 -15 -10.667 -35 -24l-131 -81h-56z" />
    <glyph glyph-name="mu" unicode="&#xb5;" 
d="M496 480l0.000976562 -485.001l-38.5 3.5c-11 1 -20.167 1.5 -27.5 1.5c-15.333 0 -28.5 -0.666992 -39.5 -2s-20.167 -2.33301 -27.5 -3v73c-28 -30 -50.333 -50 -67 -60c-24 -14.667 -52.333 -22 -85 -22c-8 0 -15.333 2 -22 6v-251
c-11.333 1.33301 -19.666 2 -24.999 2c-23.333 2 -38 3 -44 3c-14.667 0 -28 -0.666992 -40 -2s-21.667 -2.33301 -29 -3v739c11.333 -1.33301 24.166 -2.5 38.499 -3.5s24.5 -1.5 30.5 -1.5c14.667 0 28 0.666992 40 2s21.667 2.33301 29 3v-276
c0 -43.333 6.33301 -76.666 19 -99.999s33.667 -35 63 -35c38 0 63.333 17 76 51c7.33301 20 11 53 11 99v261c11.333 -1.33301 24.166 -2.5 38.499 -3.5s24.5 -1.5 30.5 -1.5c14.667 0 28 0.666992 40 2s21.667 2.33301 29 3z" />
    <glyph glyph-name="paragraph" unicode="&#xb6;" horiz-adv-x="700" 
d="M549 635l-0.00195312 -727.001l-45 3l-46 -3v727h-58v-727l-45 3l-46 -3v420l-34 -2c-61.333 0 -109.666 15.333 -144.999 46s-53 75.334 -53 134.001c0 54 15.333 95.333 46 124c36.667 34 95.334 51 176.001 51h299v-46h-49zM228.998 535.999v-67.998
c0 -42.667 7.66699 -72.334 23 -89.001c12.667 -14 31.667 -21 57 -21v277c-32.667 0 -54.167 -7.83301 -64.5 -23.5s-15.5 -40.834 -15.5 -75.501z" />
    <glyph glyph-name="periodcentered" unicode="&#xb7;" horiz-adv-x="278" 
d="M139 151c-22 0 -41.167 8.16797 -57.5 24.501s-24.5 35.833 -24.5 58.5c0 22 8 41 24 57s35.333 24 58 24c22 0 41.167 -7.83301 57.5 -23.5s24.5 -34.834 24.5 -57.501s-7.83301 -42.167 -23.5 -58.5s-35.167 -24.5 -58.5 -24.5z" />
    <glyph glyph-name="periodcentered" unicode="&#x2219;" horiz-adv-x="278" 
d="M139 151c-22 0 -41.167 8.16797 -57.5 24.501s-24.5 35.833 -24.5 58.5c0 22 8 41 24 57s35.333 24 58 24c22 0 41.167 -7.83301 57.5 -23.5s24.5 -34.834 24.5 -57.501s-7.83301 -42.167 -23.5 -58.5s-35.167 -24.5 -58.5 -24.5z" />
    <glyph glyph-name="cedilla" unicode="&#xb8;" horiz-adv-x="500" 
d="M356 683c17.333 0 32.334 -6.33301 45.001 -19s19 -27.667 19 -45s-6.16699 -32.5 -18.5 -45.5s-27.5 -19.5 -45.5 -19.5s-33.5 6.5 -46.5 19.5s-19.5 28.167 -19.5 45.5s6.66699 32.333 20 45s28.666 19 45.999 19zM145.001 554c-16.667 0 -31.667 6.66699 -45 20
s-20 28.333 -20 45c0 17.333 6.33301 32.333 19 45s28 19 46 19c16.667 0 31.667 -6.33301 45 -19s20 -27.667 20 -45c0 -18 -6.33301 -33.333 -19 -46s-28 -19 -46 -19zM469.001 237h-286c0 -58 9.66699 -102 29 -132c22.667 -36 59.334 -54 110.001 -54
c20.667 0 41 4 61 12s38.667 19 56 33l11 -9l-21 -56c-42.667 -30 -90.334 -45 -143.001 -45c-82 0 -144.333 23 -187 69s-64 110.667 -64 194c0 72 20.333 130 61 174s96.667 66 168 66c73.333 0 127 -24 161 -72c29.333 -42 44 -102 44 -180zM183.001 285
l148.001 -0.000976562c0 42 -3.33301 75.333 -10 100c-10.667 40 -29.334 60 -56.001 60c-32 0 -54.667 -20 -68 -60c-9.33301 -27.333 -14 -60.666 -14 -99.999z" />
    <glyph glyph-name="onesuperior" unicode="&#xb9;" horiz-adv-x="343" 
d="M171 699c21.333 0 42.999 -3.1709 64.999 -9.50391s39.667 -16.166 53 -29.499s23.666 -29.666 30.999 -48.999s11 -38.333 11 -57c0 -46.667 -14.167 -84.5 -42.5 -113.5s-67.833 -43.5 -118.5 -43.5c-48.667 0 -87.167 12.833 -115.5 38.5s-42.5 60.834 -42.5 105.501
c0 22 3.5 42.833 10.5 62.5s18.167 36.834 33.5 51.501c12.667 13.333 29.834 24 51.501 32s42.834 12 63.501 12zM174.999 673.996c-20 0 -35.999 -10 -47.999 -30c-7.33301 -12.667 -13.666 -31 -18.999 -55c-2 -12 -3 -23.667 -3 -35v-11
c0 -29.333 3.66699 -54.333 11 -75c10.667 -30.667 28.667 -46 54 -46c17.333 0 30.666 5.66699 39.999 17s15.666 23.833 18.999 37.5s5.66602 28 6.99902 43s2 29.833 2 44.5l-2 30c-2 20.667 -7 37.667 -15 51c-11.333 19.333 -26.666 29 -45.999 29zM22 276.996v50h299
v-50h-299z" />
    <glyph glyph-name="ordmasculine" unicode="&#xba;" horiz-adv-x="1000" 
 />
    <glyph glyph-name="guillemotright" unicode="&#xbb;" horiz-adv-x="500" 
d="M416 268l-79.999 -122.002l-47 -75c-10 10 -23 19.667 -39 29l-26 15c42 52.667 79.333 103.334 112 152.001l-70 96.5c-4 5.66699 -18.333 23.834 -43 54.501c11.333 4.66699 22.166 10.667 32.499 18s21.5 16.333 33.5 27l78 -122zM268.001 267.998l-79.999 -122.002
l-47 -75c-10 10 -23 19.667 -39 29l-26 15c42 52.667 79.333 103.334 112 152.001l-70 96.5c-4 5.66699 -18.333 23.834 -43 54.501c11.333 4.66699 22.166 10.667 32.499 18s21.5 16.333 33.5 27l78 -122z" />
    <glyph glyph-name="onequarter" unicode="&#xbc;" horiz-adv-x="1000" 
 />
    <glyph glyph-name="onehalf" unicode="&#xbd;" horiz-adv-x="1000" 
 />
    <glyph glyph-name="threequarters" unicode="&#xbe;" horiz-adv-x="1000" 
 />
    <glyph glyph-name="questiondown" unicode="&#xbf;" horiz-adv-x="1000" 
 />
    <glyph glyph-name="Agrave" unicode="&#xc0;" horiz-adv-x="667" 
d="M411 204l-233.002 -0.000976562l-46.5 -132.5c-9.66699 -28.333 -17.5 -53.166 -23.5 -74.499l-47 3l-48 -3l286 693l38 -3l38 3l279 -694c-9.33301 0 -25.666 0.666992 -48.999 2s-36 2 -38 2c-10 -0 -26.5 -0.666992 -49.5 -2s-34.833 -2 -35.5 -2l-34 106
c-13.333 39.333 -25.666 73.333 -36.999 102zM204.998 264.999h183l-89 233z" />
    <glyph glyph-name="Aacute" unicode="&#xc1;" horiz-adv-x="611" 
d="M528 595c-35.333 4.66699 -73.502 8.16504 -114.502 10.498s-100.167 3.5 -177.5 3.5v-223h106c70.667 0 124.834 -14.167 162.501 -42.5s56.5 -70.5 56.5 -126.5c0 -81.333 -27.667 -139.666 -83 -174.999c-43.333 -28 -103.666 -42 -180.999 -42h-211v681h442
c-2 -9.33301 -3.33301 -16.333 -4 -21s-1 -12 -1 -22c0 -13.333 1.66699 -27.666 5 -42.999zM235.998 330.998v-275.004l41 2c14 0.666992 25.667 2.33398 35 5.00098c31.333 8.66699 54.833 25.334 70.5 50.001s23.5 53.334 23.5 86.001
c0 38.667 -9.66699 70.334 -29 95.001s-42.333 37 -69 37h-72z" />
    <glyph glyph-name="Acircumflex" unicode="&#xc2;" horiz-adv-x="611" 
d="M235 623l-0.000976562 -236h32c20.667 0 36.834 1.33301 48.501 4s24.167 10 37.5 22s23.5 27 30.5 45s10.5 37.333 10.5 58c0 36 -9.33301 63.333 -28 82s-45 28 -79 28zM234.999 329v-271h51c30 0 57.167 11.833 81.5 35.5s36.5 55.5 36.5 95.5
c0 52 -14.667 89 -44 111c-26 19.333 -67.667 29 -125 29zM85.999 0v681h258c57.333 0 103 -10.667 137 -32c41.333 -26 62 -66 62 -120c0 -44 -16.667 -80.667 -50 -110c-30 -26 -68 -42.333 -114 -49v-9c48 -5.33301 87 -18.333 117 -39c42 -28.667 63 -70.667 63 -126
c0 -64.667 -25.333 -114.667 -76 -150c-44 -30.667 -99.333 -46 -166 -46h-231z" />
    <glyph glyph-name="Atilde" unicode="&#xc3;" horiz-adv-x="500" 
d="M236 609l0.00195312 -613.001c-7.33301 0 -19.333 0.666992 -36 2s-29.334 2 -38.001 2s-21.334 -0.666992 -38.001 -2s-29.334 -2 -38.001 -2v685h382c-1.33301 -7.33301 -2.5 -15 -3.5 -23s-1.5 -14.667 -1.5 -20c0 -4.66699 0.666992 -11.667 2 -21
s2.33301 -16.666 3 -21.999c-44.667 5.33301 -81.667 9 -111 11s-69.666 3 -120.999 3z" />
    <glyph glyph-name="Adieresis" unicode="&#xc4;" horiz-adv-x="667" 
d="M5 72h43.0029l86 202l83 202c24.667 61.333 50.667 130.333 78 207c4.66699 0 11.667 -0.666992 21 -2s16.333 -2 21 -2c5.33301 0 12.666 0.666992 21.999 2s16.333 2 21 2l116 -307l121 -304h48c-1.33301 -9.33301 -2.5 -19 -3.5 -29s-1.83301 -18 -2.5 -24
c0 -6.66699 0.666992 -16 2 -28s2.66602 -20.667 3.99902 -26h-15c-12 14.667 -32.667 24.167 -62 28.5s-63.333 6.5 -102 6.5h-295c-46 0 -82.833 -1.83301 -110.5 -5.5s-47.834 -13.5 -60.501 -29.5h-15c2 8 3.33301 16 4 24s1 18 1 30c0 10.667 -0.666992 21 -2 31z
M284.003 68c26.667 0 54.667 0.333008 84 1s56 1.66699 80 3c-22 66 -46.5 135 -73.5 207l-79.5 214l-84 -210c-30 -76.667 -56 -147 -78 -211c13.333 -0.666992 37.333 -1.5 72 -2.5s61 -1.5 79 -1.5z" />
    <glyph glyph-name="Aring" unicode="&#xc5;" horiz-adv-x="500" 
d="M76 681l382 -0.00195312c-1.33301 -7.33301 -2.5 -15 -3.5 -23s-1.5 -14.667 -1.5 -20c0 -4.66699 0.666992 -11.667 2 -21s2.33301 -16.666 3 -21.999c-34.667 4.66699 -70 8.16699 -106 10.5s-78 3.5 -126 3.5v-216h105c18 0 35.5 0.666992 52.5 2
s40.5 3.66602 70.5 6.99902c-0.666992 -3.33301 -1.66699 -10 -3 -20s-2 -17.333 -2 -22s0.666992 -11.667 2 -21s2.33301 -16.666 3 -21.999c-39.333 5.33301 -80.333 8 -123 8h-105v-253c48 0 90 1.16699 126 3.5s71.333 5.83301 106 10.5
c-1.33301 -7.33301 -2.5 -15 -3.5 -23s-1.5 -14.667 -1.5 -20c0 -4.66699 0.666992 -11.667 2 -21s2.33301 -16.666 3 -21.999h-382v681z" />
    <glyph glyph-name="AE" unicode="&#xc6;" horiz-adv-x="889" 
d="M444 0c-28 0 -52.665 -1.33203 -73.998 -3.99902v317l-212 -317l-85 4l-85 -4v13l279 387l-102 116c-56 60.667 -108.333 114.334 -157 161.001v8l27 -4c9.33301 -1.33301 18 -2 26 -2c18.667 0 36.667 2 54 6l125 -158l130 -155v313c23.333 -4 48 -6 74 -6
c25.333 0 50 2 74 6v-313l160 194l95 119c16 -4 34 -6 54 -6c7.33301 0 16.166 0.666992 26.499 2s19.166 2.66602 26.499 3.99902v-8c-37.333 -35.333 -73 -71 -107 -107c-22 -22.667 -53 -56.667 -93 -102c-24 -26.667 -43.667 -49.334 -59 -68.001l279 -387v-13l-85 4
l-85 -4l-212 317v-317c-8 0 -21.833 0.666992 -41.5 2s-30.5 2 -32.5 2z" />
    <glyph glyph-name="Ccedilla" unicode="&#xc7;" horiz-adv-x="611" 
d="M199 323l-0.00195312 71.999c7.33301 -0.666992 14 -1.16699 20 -1.5s12 -0.5 18 -0.5c46.667 0 80.334 13 101.001 39c18 22.667 27 55.667 27 99c0 32.667 -6.66699 60 -20 82c-17.333 28.667 -43 43 -77 43c-37.333 0 -65.666 -12.667 -84.999 -38
c-14.667 -19.333 -25.667 -48.333 -33 -87l-17 -1l-40.5 37c-13.667 12.667 -26.834 24 -39.501 34c26 38 57.667 64.5 95 79.5s82 22.5 134 22.5c77.333 0 137.166 -15.333 179.499 -46s63.5 -71.334 63.5 -122.001c0 -88 -49 -144.333 -147 -169
c57.333 -12 98 -26.333 122 -43c38 -26.667 57 -68.667 57 -126c0 -64 -27.167 -115.333 -81.5 -154s-123.833 -58 -208.5 -58c-45.333 0 -88.666 6.83301 -129.999 20.5s-76 34.167 -104 61.5l39 43c12.667 14.667 24.667 30 36 46l16 -1
c5.33301 -35.333 18.333 -63.666 39 -84.999c23.333 -24.667 54.333 -37 93 -37c42.667 0 77.667 16.333 105 49c24.667 29.333 37 63 37 101c0 54 -14 93 -42 117c-22.667 19.333 -54.667 29 -96 29c-8.66699 0 -18.667 -0.666992 -30 -2
s-21.666 -2.66602 -30.999 -3.99902z" />
    <glyph glyph-name="Egrave" unicode="&#xc8;" horiz-adv-x="778" 
d="M86 -4l-0.000976562 685c8 0 20.333 -1 37 -3s29.334 -3 38.001 -3c8 0 20.333 1 37 3s29.334 3 38.001 3v-469c56 59.333 122 136.333 198 231c72.667 90.667 133.334 170.667 182.001 240c10.667 -1.33301 19.334 -2 26.001 -2c5.33301 0 13.666 0.333008 24.999 1
s19.666 1 24.999 1v-687c-8 0 -20.333 0.666992 -37 2s-29.667 2 -39 2c-7.33301 -0 -19.333 -0.666992 -36 -2s-29.334 -2 -38.001 -2v473l-196.5 -235c-73 -90.667 -134.5 -170 -184.5 -238c-4.66699 0.666992 -10 1 -16 1h-13h-23.5
c-7.66699 0 -15.167 -0.333008 -22.5 -1z" />
    <glyph glyph-name="Eacute" unicode="&#xc9;" horiz-adv-x="778" 
d="M86 -4l-0.000976562 685c8 0 20.333 -1 37 -3s29.334 -3 38.001 -3c8 0 20.333 1 37 3s29.334 3 38.001 3v-469c56 59.333 122 136.333 198 231c72.667 90.667 133.334 170.667 182.001 240c10.667 -1.33301 19.334 -2 26.001 -2c5.33301 0 13.666 0.333008 24.999 1
s19.666 1 24.999 1v-687c-8 0 -20.333 0.666992 -37 2s-29.667 2 -39 2c-7.33301 -0 -19.333 -0.666992 -36 -2s-29.334 -2 -38.001 -2v473l-196.5 -235c-73 -90.667 -134.5 -170 -184.5 -238c-4.66699 0.666992 -10 1 -16 1h-13h-23.5
c-7.66699 0 -15.167 -0.333008 -22.5 -1zM139.999 798l40.999 55c31.333 -31.333 64.666 -54.833 99.999 -70.5s71.666 -23.5 108.999 -23.5c78.667 0 150 32 214 96l39 -51c-36 -36 -76.167 -63.333 -120.5 -82s-90.166 -28 -137.499 -28
c-45.333 0 -88.666 8.5 -129.999 25.5s-79.666 43.167 -114.999 78.5z" />
    <glyph glyph-name="Ecircumflex" unicode="&#xca;" horiz-adv-x="611" 
d="M86 -4l0.00195312 685.002c8.66699 0 21.334 -1 38.001 -3s29 -3 37 -3s20.333 1 37 3s29.334 3 38.001 3v-313l260 313c6 -0.666992 15.167 -1.83398 27.5 -3.50098s21.166 -2.5 26.499 -2.5c7.33301 0 15.666 0.666992 24.999 2l28 4v-8
c-37.333 -35.333 -73 -71 -107 -107c-22 -22.667 -53 -56.667 -93 -102c-24 -26.667 -43.667 -49.334 -59 -68.001l279 -387v-13l-85 4l-85 -4l-217 317v-317c-8 0 -20.333 0.666992 -37 2s-29.334 2 -38.001 2c-8 -0 -20.333 -0.666992 -37 -2s-29.334 -2 -38.001 -2z" />
    <glyph glyph-name="Edieresis" unicode="&#xcb;" horiz-adv-x="667" 
d="M295 682c4.66699 0 11.668 -0.666992 21.001 -2s16.333 -2 21 -2c5.33301 0 12.666 0.666992 21.999 2s16.333 2 21 2l86 -230l90 -228l92 -227c-10 0 -24.667 1 -44 3s-34 3 -44 3s-24.667 -1 -44 -3s-34 -3 -44 -3c-20.667 69.333 -48.667 151.666 -84 246.999l-93 248
l-65.5 -162.5c-26.333 -66.333 -47.5 -121.833 -63.5 -166.5c-22 -61.333 -41 -116.666 -57 -165.999l-47 3l-46 -3l97 227l94 227c32.667 80.667 62 157.667 88 231z" />
    <glyph glyph-name="Igrave" unicode="&#xcc;" horiz-adv-x="888" 
d="M449 211l74.998 146l79 156l79 168l41 -6c6 0 13 0.666992 21 2l23 4l42.5 -368c14.333 -122 29.5 -227.667 45.5 -317c-9.33301 0 -25.166 0.666992 -47.499 2s-34.5 2 -36.5 2c-9.33301 -0 -24.666 -0.666992 -45.999 -2s-32.666 -2 -33.999 -2
c0 62.667 -5 136.5 -15 221.5l-28 242.5l-75 -152l-75 -153l-72 -155c-12 1.33301 -20 2 -24 2c-2.66699 0 -7.33398 -0.666992 -14.001 -2l-68 143l-74 151l-77 156c-10 -75.333 -17 -130.333 -21 -165c-6.66699 -56 -11.834 -107.667 -15.501 -155s-5.5 -92 -5.5 -134
c-4.66699 0 -12.334 0.666992 -23.001 2s-18.667 2 -24 2s-14.166 -0.666992 -26.499 -2s-19.166 -2 -20.499 -2c9.33301 51.333 21 121.333 35 210c4 26 15 102.333 33 229l35 246l41 -6c6 0 12.667 0.666992 20 2l21 4l74 -156l78 -157z" />
    <glyph glyph-name="Iacute" unicode="&#xcd;" horiz-adv-x="778" 
d="M86 -4l-0.000976562 685c8 0 20.333 -1 37 -3s29.334 -3 38.001 -3c8 0 20.333 1 37 3s29.334 3 38.001 3v-271c21.333 0 50.333 -0.833008 87 -2.5s58.667 -2.5 66 -2.5c23.333 0 42.333 0.333008 57 1c58 2.66699 90 4 96 4v271c8 0 20.333 -1 37 -3s29 -3 37 -3
c8.66699 0 21.334 1 38.001 3s29.334 3 38.001 3v-685c-8 0 -20.333 0.666992 -37 2s-29.667 2 -39 2c-7.33301 -0 -19.333 -0.666992 -36 -2s-29.334 -2 -38.001 -2v334c-18 0 -47.5 0.666992 -88.5 2s-62.5 2 -64.5 2c-23.333 0 -50 -0.5 -80 -1.5l-73 -2.5v-334
c-8 0 -20.333 0.666992 -37 2s-29.334 2 -38.001 2c-8 -0 -20.333 -0.666992 -37 -2s-29.334 -2 -38.001 -2z" />
    <glyph glyph-name="Icircumflex" unicode="&#xce;" horiz-adv-x="833" 
d="M799 343c0 -101.333 -35.001 -186 -105.001 -254c-73.333 -71.333 -169.666 -107 -288.999 -107c-112 0 -201.667 31.333 -269 94s-101 150.334 -101 263.001c0 103.333 34.333 188.333 103 255c72 70 169 105 291 105c128.667 0 225.667 -40 291 -120
c52.667 -64.667 79 -143.334 79 -236.001zM421.999 639c-70.667 0 -124.667 -26.667 -162 -80c-39.333 -56 -59 -139 -59 -249c0 -73.333 16 -134.333 48 -183c37.333 -56.667 91 -85 161 -85c72.667 0 129 32.333 169 97c36 58.667 54 133 54 223
c0 73.333 -16 135.333 -48 186c-38.667 60.667 -93 91 -163 91z" />
    <glyph glyph-name="Idieresis" unicode="&#xcf;" horiz-adv-x="778" 
d="M86 -4l0.00195312 685c60 0 115.333 -0.166992 166 -0.5s96.334 -0.5 137.001 -0.5h22h25h25h24h22h21h19h17h15h14h12h37c12.667 0 25.667 0.333008 39 1h11v-685c-8 0 -20.333 0.666992 -37 2s-29.667 2 -39 2c-7.33301 -0 -19.333 -0.666992 -36 -2
s-29.334 -2 -38.001 -2v610l-153 3l-153 -3v-610c-8 0 -20.333 0.666992 -37 2s-29.334 2 -38.001 2c-8 -0 -20.333 -0.666992 -37 -2s-29.334 -2 -38.001 -2z" />
    <glyph glyph-name="Eth" unicode="&#xd0;" 
d="M236 295l0.00195312 -299c-8 0 -20.333 0.666992 -37 2s-29.334 2 -38.001 2s-21.334 -0.666992 -38.001 -2s-29 -2 -37 -2v685h246c142.667 0 214 -56.333 214 -169c0 -82.667 -29 -141 -87 -175c-48 -28 -122.333 -42 -223 -42zM236.002 626l0.000976562 -274.999
c23.333 0 45.333 2.33301 66 7c30.667 8.66699 53.667 25.667 69 51c13.333 22.667 20 51 20 85c0 39.333 -8.83301 71.166 -26.5 95.499s-39.834 36.5 -66.501 36.5h-62z" />
    <glyph glyph-name="Ntilde" unicode="&#xd1;" horiz-adv-x="667" 
d="M609 117l13 -6.00098l-22 -86c-29.333 -14.667 -60.833 -25.5 -94.5 -32.5s-68.167 -10.5 -103.5 -10.5c-109.333 0 -198.666 30.333 -267.999 91c-72 62.667 -108 144.667 -108 246c0 124.667 39 220.667 117 288c71.333 61.333 165 92 281 92
c34.667 0 70 -4.16699 106 -12.5s68.667 -20.5 98 -36.5l-23 -103h-14c-18.667 26.667 -43.167 48.667 -73.5 66s-61.166 26 -92.499 26c-77.333 0 -137 -32.667 -179 -98c-36 -56 -54 -125.333 -54 -208c0 -88 20.667 -158.5 62 -211.5s100 -79.5 176 -79.5
c31.333 0 63.166 6.83301 95.499 20.5s60.166 31.834 83.499 54.501z" />
    <glyph glyph-name="Ograve" unicode="&#xd2;" 
d="M356 610l0.000976562 -613.998c-8.66699 0 -23.167 0.666992 -43.5 2s-30.833 2 -31.5 2c-8 0 -20.333 -0.666992 -37 -2s-29.334 -2 -38.001 -2v614c-35.333 0 -66.166 -1.16699 -92.499 -3.5s-57.5 -5.83301 -93.5 -10.5l3.5 24.5c1 7 1.5 13.167 1.5 18.5
c0 9.33301 -0.666992 17.5 -2 24.5s-2.33301 12.833 -3 17.5h515l-6 -42c0 -6.66699 0.666992 -13.834 2 -21.501s2.66602 -14.834 3.99902 -21.501c-48.667 6 -78 9.33301 -88 10c-30 2.66699 -60.333 4 -91 4z" />
    <glyph glyph-name="Oacute" unicode="&#xd3;" horiz-adv-x="667" 
d="M225 -3c11.333 19.333 29.998 55.6689 55.998 109.002l35 72c-19.333 41.333 -48.666 94.666 -87.999 159.999l-113 182c-45.333 72.667 -77.666 126.334 -96.999 161.001c10 0 25 -1 45 -3s35 -3 45 -3s25 1 45 3s35 3 45 3c8.66699 -18 26.667 -50.667 54 -98
c5.33301 -8.66699 31.666 -54 78.999 -136c32 -54.667 51.667 -89.334 59 -104.001c16 24.667 43 77.667 81 159l81 179l49 -3l48 3c-19.333 -34.667 -55 -102.334 -107 -203.001l-135 -270c-50 -103.333 -82.333 -174 -97 -212c-4 0 -10.667 0.666992 -20 2
s-16.666 2 -21.999 2z" />
    <glyph glyph-name="Ocircumflex" unicode="&#xd4;" horiz-adv-x="889" 
d="M370 -4l0.000976562 69.999c-104 0 -185 22.333 -243 67c-60.667 46.667 -91 115.334 -91 206.001c0 82 28.667 147.333 86 196c60 50.667 142.667 76 248 76v70c8 0 20.333 -1 37 -3s29.334 -3 38.001 -3c8 0 20.333 1 37 3s29.334 3 38.001 3v-67
c117.333 0 204.666 -28.333 261.999 -85c48 -47.333 72 -109.666 72 -186.999c0 -80.667 -29.833 -146.334 -89.5 -197.001s-141.5 -76 -245.5 -76l1 -73c-8 0 -20.333 0.666992 -37 2s-29.334 2 -38.001 2c-8 -0 -20.333 -0.666992 -37 -2s-29.334 -2 -38.001 -2z
M680.001 356.999c0 53.333 -13.334 99.333 -40.001 138c-30 43.333 -70 65 -120 65l-1 -438c48.667 0 88.334 24.333 119.001 73c28 44.667 42 98.667 42 162zM210 320.999c0 -53.333 13.666 -99.333 40.999 -138c30.667 -43.333 70.334 -65 119.001 -65v442
c-49.333 0 -88.333 -22.5 -117 -67.5s-43 -102.167 -43 -171.5z" />
    <glyph glyph-name="Otilde" unicode="&#xd5;" horiz-adv-x="611" 
d="M586 681l-96.999 -136.001l-116 -165l14 -23l98.5 -177.5c33 -59 65.5 -120.167 97.5 -183.5c-9.33301 0 -25.666 0.666992 -48.999 2s-36 2 -38 2c-9.33301 0 -25.333 -0.666992 -48 -2s-35.334 -2 -38.001 -2l-82 159l-50 95l-92 -144
c-8.66699 -13.333 -20 -32.333 -34 -57c-10.667 -18 -20 -35.333 -28 -52l-50 3l-49 -3l74 106l72 105l69 105l-205 368c9.33301 0 24 -1 44 -3s35 -3 45 -3c9.33301 0 24 1 44 3s35 3 45 3c17.333 -37.333 42.666 -87.666 75.999 -150.999l48 -91l151 242l49 -3z" />
    <glyph glyph-name="Odieresis" unicode="&#xd6;" horiz-adv-x="778" 
d="M592 0l-202.001 -0.000976562c-44 0 -91.333 -0.333008 -142 -1s-104.667 -1.66699 -162 -3v686c8 0 20.333 -0.666992 37 -2s29.334 -2 38.001 -2c8 0 20.333 0.666992 37 2s29.334 2 38.001 2v-609c10 0 35.5 -0.5 76.5 -1.5s66.833 -1.5 77.5 -1.5
c39.333 0 70.166 0.333008 92.499 1s42.166 1.33398 59.499 2.00098v609c8 0 20.333 -0.666992 37 -2s29 -2 37 -2c8.66699 0 21.334 0.666992 38.001 2s29.334 2 38.001 2v-610h79c-4 -20 -6 -38 -6 -54c0 -6.66699 0.666992 -15.667 2 -27s2.66602 -20 3.99902 -26h-15
c-12 14.667 -32.833 24.167 -62.5 28.5s-63.5 6.5 -101.5 6.5z" />
    <glyph glyph-name="multiply" unicode="&#xd7;" horiz-adv-x="722" 
d="M58 420l-0.00292969 261c8 0 20.333 -1 37 -3s29.334 -3 38.001 -3c8 0 20.333 1 37 3s29.334 3 38.001 3v-261c0 -28 13 -48.333 39 -61c19.333 -9.33301 45 -14 77 -14c23.333 0 48.833 5.83301 76.5 17.5s56.167 27.5 85.5 47.5v271c8 0 20.333 -1 37 -3s29 -3 37 -3
c8.66699 0 21.334 1 38.001 3s29.334 3 38.001 3v-685c-8 0 -20.333 0.666992 -37 2s-29.667 2 -39 2c-7.33301 -0 -19.333 -0.666992 -36 -2s-29.334 -2 -38.001 -2v334c-41.333 -24.667 -76.333 -42 -105 -52c-38 -13.333 -77.667 -20 -119 -20
c-52.667 0 -99 14.333 -139 43c-43.333 31.333 -65 71 -65 119z" />
    <glyph glyph-name="Oslash" unicode="&#xd8;" horiz-adv-x="944" 
d="M317 69c18.667 0 34.1631 0.332031 46.4961 0.999023s23.833 1.33398 34.5 2.00098v609c8 0 20.333 -1 37 -3s29.334 -3 38.001 -3c8 0 20.333 1 37 3s29.334 3 38.001 3v-609c13.333 0 27.166 -0.333008 41.499 -1s27.833 -1.33398 40.5 -2.00098
c18 0 33.167 0.333008 45.5 1s23.833 1.33398 34.5 2.00098v609c8 0 20.333 -0.666992 37 -2s29 -2 37 -2c8.66699 0 21.334 0.666992 38.001 2s29.334 2 38.001 2v-686c-30 0 -94.5 0.833008 -193.5 2.5s-163.5 2.5 -193.5 2.5c-66.667 0 -133.834 -0.5 -201.501 -1.5
s-129.5 -2.16699 -185.5 -3.5v686c8 0 20.333 -0.666992 37 -2s29.334 -2 38.001 -2c8 0 20.333 0.666992 37 2s29.334 2 38.001 2v-609z" />
    <glyph glyph-name="Ugrave" unicode="&#xd9;" horiz-adv-x="944" 
d="M760 0l-287.004 -0.000976562c-50.667 0 -109.167 -0.333008 -175.5 -1s-136.833 -1.66699 -211.5 -3v686c8 0 20.333 -0.666992 37 -2s29.334 -2 38.001 -2c8 0 20.333 0.666992 37 2s29.334 2 38.001 2v-609l81 -3c18.667 0 34.167 0.333008 46.5 1
s23.833 1.33398 34.5 2.00098v609c8 0 20.333 -1 37 -3s29.334 -3 38.001 -3c8 0 20.333 1 37 3s29.334 3 38.001 3v-609c13.333 0 27.166 -0.333008 41.499 -1s27.833 -1.33398 40.5 -2.00098c18 0 33.167 0.333008 45.5 1s23.833 1.33398 34.5 2.00098v609
c8 0 20.333 -0.666992 37 -2s29 -2 37 -2c8.66699 0 21.334 0.666992 38.001 2s29.334 2 38.001 2v-610h79c-4 -20 -6 -38 -6 -54c0 -6.66699 0.666992 -15.667 2 -27s2.66602 -20 3.99902 -26h-15c-12 14.667 -32.833 24.167 -62.5 28.5s-63.5 6.5 -101.5 6.5z" />
    <glyph glyph-name="Uacute" unicode="&#xda;" horiz-adv-x="593" 
d="M122 0l0.00195312 609.998c-36.667 0 -60.334 -0.666992 -71.001 -2s-34.334 -5.33301 -71.001 -12c1.33301 3.33301 2.5 9 3.5 17s1.5 16.667 1.5 26c0 6.66699 -0.333008 13.834 -1 21.501s-2 14.5 -4 20.5h292v-295h96c142.667 0 214 -56.333 214 -169
c0 -81.333 -27 -139.666 -81 -174.999c-42.667 -28 -102 -42 -178 -42h-201zM272.002 330.998l0.000976562 -275.001c10.667 0.666992 22 1.33398 34 2.00098s22.667 2.33398 32 5.00098c30.667 8.66699 53.667 25.667 69 51c13.333 22.667 20 51 20 85
c0 39.333 -8.83301 71.166 -26.5 95.499s-39.834 36.5 -66.501 36.5h-62z" />
    <glyph glyph-name="Ucircumflex" unicode="&#xdb;" horiz-adv-x="869" 
d="M235 685l-0.00195312 -299.001h96c142.667 0 214 -56.333 214 -169c0 -81.333 -27 -139.666 -81 -174.999c-42.667 -28 -102 -42 -178 -42h-201v685c8 0 20.333 -0.666992 37 -2s29.334 -2 38.001 -2c8 0 20.333 0.666992 37 2s29.334 2 38.001 2zM634.998 -4.00098v685
c8 0 20.333 -1 37 -3s29.334 -3 38.001 -3c8 0 20.333 1 37 3s29.334 3 38.001 3v-685c-8 0 -20.333 0.666992 -37 2s-29.334 2 -38.001 2c-8 0 -20.333 -0.666992 -37 -2s-29.334 -2 -38.001 -2zM234.998 330.999l0.000976562 -275.001
c10.667 0.666992 22 1.33398 34 2.00098s22.667 2.33398 32 5.00098c30.667 8.66699 53.667 25.667 69 51c13.333 22.667 20 51 20 85c0 39.333 -8.83301 71.166 -26.5 95.499s-39.834 36.5 -66.501 36.5h-62z" />
    <glyph glyph-name="Udieresis" unicode="&#xdc;" 
d="M226 685l-0.00195312 -299.001h96c142.667 0 214 -56.333 214 -169c0 -81.333 -27 -139.666 -81 -174.999c-42.667 -28 -102 -42 -178 -42h-201v685c8 0 20.333 -0.666992 37 -2s29.334 -2 38.001 -2c8 0 20.333 0.666992 37 2s29.334 2 38.001 2zM225.998 330.999
l0.000976562 -275.001c10.667 0.666992 22 1.33398 34 2.00098s22.667 2.33398 32 5.00098c30.667 8.66699 53.667 25.667 69 51c13.333 22.667 20 51 20 85c0 39.333 -8.83301 71.166 -26.5 95.499s-39.834 36.5 -66.501 36.5h-62z" />
    <glyph glyph-name="Yacute" unicode="&#xdd;" horiz-adv-x="667" 
d="M475 325l-229.999 -0.000976562c-42.667 0 -83.667 -2.66699 -123 -8c0 6 0.833008 14.167 2.5 24.5s2.5 16.5 2.5 18.5c0 6 -0.833008 14 -2.5 24s-2.5 16 -2.5 18c29.333 -3.33301 52 -5.66602 68 -6.99902s34.333 -2 55 -2h226
c-8.66699 71.333 -30.667 128.333 -66 171c-40.667 50 -95 75 -163 75c-32 0 -62.833 -8.16699 -92.5 -24.5s-54.167 -38.833 -73.5 -67.5h-14l-23 103c26.667 14.667 59.167 26.5 97.5 35.5s73.833 13.5 106.5 13.5c116 0 209.667 -30.667 281 -92
c78 -67.333 117 -163.333 117 -288c0 -101.333 -35.333 -182.833 -106 -244.5s-160.667 -92.5 -270 -92.5c-38 0 -72.667 3.16699 -104 9.5s-62.666 17.5 -93.999 33.5l-22 86l13 6c23.333 -22 51.166 -40 83.499 -54s64.166 -21 95.499 -21c74.667 0 133 26 175 78
s63 120.333 63 205z" />
    <glyph glyph-name="Thorn" unicode="&#xde;" horiz-adv-x="1074" 
d="M657 -18c-106 0 -190.333 29.668 -253 89.001c-64.667 61.333 -97 146 -97 254c-6.66699 0 -13.334 0.333008 -20.001 1s-11.667 1 -15 1c-5.33301 0 -11.333 -0.333008 -18 -1s-12.667 -1 -18 -1v-329c-8 0 -20.333 0.666992 -37 2s-29.334 2 -38.001 2
c-8 0 -20.333 -0.666992 -37 -2s-29.334 -2 -38.001 -2v685c8 0 20.333 -1 37 -3s29.334 -3 38.001 -3c8 0 20.333 1 37 3s29.334 3 38.001 3v-276c10 0 19.333 -0.166992 28 -0.5s17 -0.5 25 -0.5h14c4 0.666992 7.33301 1 10 1c14.667 88 53.334 158.333 116.001 211
c66 55.333 150 83 252 83c124 0 216.667 -40 278 -120c48 -62.667 72 -141.334 72 -236.001c0 -101.333 -33 -186 -99 -254c-69.333 -71.333 -161 -107 -275 -107zM674 639.001c-64.667 0 -114.333 -27.333 -149 -82s-52 -137 -52 -247c0 -74 14 -135 42 -183
c33.333 -56.667 82.333 -85 147 -85c67.333 0 119 32.333 155 97c32 58 48 132.333 48 223c0 74 -14 136 -42 186c-34 60.667 -83.667 91 -149 91z" />
    <glyph glyph-name="germandbls" unicode="&#xdf;" horiz-adv-x="611" 
d="M536 681l0.00488281 -685.001c-8 0 -20.333 0.666992 -37 2s-29.334 2 -38.001 2c-8 0 -20.333 -0.666992 -37 -2s-29.334 -2 -38.001 -2v319h-7l-35 -58c-11.333 -19.333 -21 -36.666 -29 -51.999l-120 -209c-10 0 -25 0.666992 -45 2s-35 2 -45 2
c-10.667 -0 -26 -0.666992 -46 -2s-34.667 -2 -44 -2l39 61l67 104c47.333 74 83.666 133 108.999 177c-48.667 10.667 -86.334 30.667 -113.001 60c-28.667 31.333 -43 71.333 -43 120c0 34 7.16699 62.5 21.5 85.5s36.166 42.167 65.499 57.5
c11.333 6 28.5 10.833 51.5 14.5s53.833 5.5 92.5 5.5h18h213zM386.005 358.999l-0.000976562 267h-30c-35.333 0 -60.666 -3.33301 -75.999 -10c-24.667 -10.667 -40 -32 -46 -64c-3.33301 -17.333 -5 -34 -5 -50c0 -96 44 -144 132 -144h15c4.66699 0.666992 8 1 10 1z
" />
    <glyph glyph-name="agrave" unicode="&#xe0;" horiz-adv-x="500" 
d="M432 356l0.00292969 -274.004c0 -17.333 3.66699 -29.333 11 -36s21 -10 41 -10v-23c-11.333 -5.33301 -26.333 -11.166 -45 -17.499s-34 -9.5 -46 -9.5c-23.333 0 -43.5 6.33301 -60.5 19s-29.5 30.667 -37.5 54c-13.333 -23.333 -31.333 -41.333 -54 -54
s-47.334 -19 -74.001 -19c-42.667 0 -77 11.333 -103 34s-39 55.334 -39 98.001c0 44.667 14.667 78.334 44 101.001c24 18.667 70 36.334 138 53.001c16 4 28.333 7.33301 37 10c14 4.66699 26 10 36 16c5.33301 5.33301 9.16602 11 11.499 17s3.5 13.333 3.5 22
c0 23.333 -9.83301 43.833 -29.5 61.5s-41.5 26.5 -65.5 26.5c-28.667 0 -56.334 -8 -83.001 -24c-22 -13.333 -35 -26 -39 -38h-7l-13 59c22 21.333 50 37.833 84 49.5s67.667 17.5 101 17.5c49.333 0 91.333 -9.66699 126 -29c42 -23.333 63 -58 63 -104zM295.003 158.996
l-0.000976562 97l-48 -16c-22 -8 -39.167 -16.667 -51.5 -26s-20.666 -20.833 -24.999 -34.5s-6.5 -30.167 -6.5 -49.5c0 -21.333 4.16699 -39.833 12.5 -55.5s22.166 -23.5 41.499 -23.5c28.667 0 49.334 11.667 62.001 35c10 18 15 42.333 15 73z" />
    <glyph glyph-name="aacute" unicode="&#xe1;" 
d="M33 227c0 188.667 30.167 311.501 90.5 368.501s190.833 85.5 391.5 85.5c-1.33301 -6 -2.66602 -12.5 -3.99902 -19.5s-2 -14.5 -2 -22.5c0 -6.66699 0.666992 -13.834 2 -21.501l4 -22.5c-40.667 8.66699 -89.334 13 -146.001 13c-88 0 -154 -18 -198 -54
c-37.333 -30.667 -56 -72 -56 -124c20.667 18.667 45.834 33.167 75.501 43.5s61.167 15.5 94.5 15.5c76.667 0 138.5 -21.5 185.5 -64.5s70.5 -101.5 70.5 -175.5c0 -76.667 -23.333 -139.667 -70 -189s-108.667 -74 -186 -74c-74.667 0 -135.334 21.833 -182.001 65.5
s-70 102.167 -70 175.5zM292 445.001c-38 0 -66.667 -20.999 -86 -62.999c-16.667 -36.667 -25 -87.334 -25 -152.001c0 -46.667 6.33301 -87.667 19 -123c18 -50.667 46.333 -76 85 -76c36 0 63.667 25.333 83 76c16.667 43.333 25 96.333 25 159
c0 51.333 -8.66699 94 -26 128s-42.333 51 -75 51z" />
    <glyph glyph-name="acircumflex" unicode="&#xe2;" horiz-adv-x="500" 
d="M194 228v-175h31c29.333 0 53.333 7.33301 72 22s28 35 28 61c0 34 -9 57.833 -27 71.5s-42.333 20.5 -73 20.5h-31zM194 429l0.000976562 -149h25c56.667 0 85 26 85 78c0 25.333 -6.83301 43.5 -20.5 54.5s-33.834 16.5 -60.501 16.5h-29zM56.001 0v479.001h209
c52.667 0 93.667 -8.33301 123 -25c35.333 -20 53 -50.667 53 -92c0 -26.667 -9.83301 -49.834 -29.5 -69.501s-45.834 -31.167 -78.501 -34.5c43.333 -8 74.333 -19 93 -33c26.667 -20 40 -51 40 -93c0 -42.667 -19.333 -76 -58 -100c-35.333 -22 -79.666 -33 -132.999 -33
z" />
    <glyph glyph-name="atilde" unicode="&#xe3;" horiz-adv-x="407" 
d="M400 412c-27.333 2.66699 -58.6689 4.83301 -94.002 6.5s-72.666 2.5 -111.999 2.5v-425c-7.33301 0 -20.166 0.666992 -38.499 2s-28.5 2 -30.5 2c-7.33301 -0 -20.333 -0.666992 -39 -2s-28.667 -2 -30 -2v483h344c-3.33301 -10 -5 -21 -5 -33
c0 -12.667 1.66699 -24 5 -34z" />
    <glyph glyph-name="adieresis" unicode="&#xe4;" horiz-adv-x="500" 
d="M-16 58h58.002l33 78l69.5 173c23.667 59.333 44.167 116 61.5 170c6 0 14.667 -0.666992 26 -2s19.666 -2 24.999 -2c6 0 14.667 0.666992 26 2s19.666 2 24.999 2l48.5 -140l49.5 -140l54 -141h51c-1.33301 -4.66699 -2.5 -10.5 -3.5 -17.5s-1.5 -15.5 -1.5 -25.5
c0 -8.66699 0.333008 -16 1 -22s2 -13.333 4 -22h-10c-14.667 16 -37.5 24.833 -68.5 26.5s-78.167 2.5 -141.5 2.5h-87c-62.667 0 -109 -0.833008 -139 -2.5s-54 -10.5 -72 -26.5h-9c1.33301 4 2.5 10 3.5 18s1.5 16.667 1.5 26c0 8 -0.333008 15.667 -1 23s-2 14 -4 20z
M117.002 58h194.001l-93 284l-39 -105c-22.667 -61.333 -43.334 -121 -62.001 -179z" />
    <glyph glyph-name="aring" unicode="&#xe5;" horiz-adv-x="500" 
d="M477 237h-295.997c0 -56 11.333 -100 34 -132c25.333 -36 63.666 -54 114.999 -54c20.667 0 41 4 61 12s38.667 19 56 33l11 -9l-21 -56c-42.667 -30 -90.334 -45 -143.001 -45c-82.667 0 -146.834 23.167 -192.501 69.5s-68.5 110.833 -68.5 193.5c0 72 21 130 63 174
s99 66 171 66c74 0 128.667 -24 164 -72c30.667 -42 46 -102 46 -180zM181.003 285h158c0 38.667 -4.33301 72 -13 100c-12.667 40 -32 60 -58 60c-32 0 -55.667 -20 -71 -60c-10.667 -28 -16 -61.333 -16 -100z" />
    <glyph glyph-name="ae" unicode="&#xe6;" horiz-adv-x="741" 
d="M439 -4c-18 2.66699 -40.6621 4.00098 -67.9951 4.00098c-6.66699 0 -17.667 -0.666992 -33 -2s-27.333 -2 -36 -2v231c-6.66699 -2.66699 -13 -8.66699 -19 -18c-0.666992 -1.33301 -3.66699 -6 -9 -14c-18.667 -28 -39.334 -61.333 -62.001 -100l-55 -99
c-8 0 -20.333 0.666992 -37 2s-29.667 2 -39 2c-7.33301 0 -19.666 -0.666992 -36.999 -2s-30.333 -2 -39 -2v7c31.333 56.667 64 112 98 166l81 127l-168 177v6c4.66699 0 11.667 -0.666992 21 -2s16.333 -2 21 -2c5.33301 0 12.666 0.666992 21.999 2s16.333 2 21 2
l96 -110c37.333 -42 69.333 -76.667 96 -104l9 1v213c23.333 -3.33301 46.333 -5 69 -5c12 0 24.167 0.333008 36.5 1s22.833 2 31.5 4v-213c0 -0.666992 3 -1 9 -1l96 103l96 111c4.66699 0 11.667 -0.666992 21 -2s16.666 -2 21.999 -2c4.66699 0 11.667 0.666992 21 2
s16.333 2 21 2v-6c-18 -22.667 -38.333 -45.334 -61 -68.001c-66 -66 -101.667 -102.333 -107 -109l81 -127c34 -54 66.667 -109.333 98 -166v-7c-8 0 -22.333 0.666992 -43 2s-31.667 2 -33 2c-8.66699 -0 -21.334 -0.666992 -38.001 -2s-29.334 -2 -38.001 -2l-55 99
c-22.667 38.667 -43.334 72 -62.001 100l-12 18.5c-4 6.33301 -9.33301 10.833 -16 13.5v-231z" />
    <glyph glyph-name="ccedilla" unicode="&#xe7;" horiz-adv-x="481" 
d="M423 365c0 -32 -10.1689 -56.999 -30.502 -74.999s-48.833 -28.667 -85.5 -32c44.667 -6 79.334 -18.5 104.001 -37.5s37 -47.5 37 -85.5c0 -45.333 -22.333 -81 -67 -107s-100.334 -39 -167.001 -39c-41.333 0 -79.166 2.66699 -113.499 8s-60.5 13.333 -78.5 24
l13.5 39c5 14 8.16699 26 9.5 36h8c12 -18.667 30.333 -32.5 55 -41.5s51.667 -13.5 81 -13.5c34.667 0 63 8.33301 85 25s33 39.667 33 69c0 31.333 -9.33301 54.5 -28 69.5s-44 22.5 -76 22.5l-51 -2v59c8.66699 -0.666992 17.334 -1.16699 26.001 -1.5s17 -0.5 25 -0.5
c26 0 46 7.33301 60 22s21 35 21 61c0 52.667 -32.333 79 -97 79c-24.667 0 -48.667 -4.66699 -72 -14s-38 -22 -44 -38h-9c-6 23.333 -14 47.666 -24 72.999c20.667 8 47.667 14.167 81 18.5s65.666 6.5 96.999 6.5c62.667 0 112.834 -10.667 150.501 -32
s56.5 -52.333 56.5 -93z" />
    <glyph glyph-name="egrave" unicode="&#xe8;" 
d="M194 479l-0.000976562 -303.998c33.333 42 68 90 104 144c27.333 41.333 60.666 94.666 99.999 159.999l52 -3l50 3v-483c-7.33301 0 -20.166 0.666992 -38.499 2s-28.5 2 -30.5 2c-11.333 0 -20 -0.166992 -26 -0.5s-20.333 -1.5 -43 -3.5v308
c-38.667 -49.333 -76 -101.333 -112 -156c-32 -48.667 -62.667 -99.334 -92 -152.001c-3.33301 0 -10.666 0.666992 -21.999 2s-20.666 2 -27.999 2c-12 -0 -22.833 -0.666992 -32.5 -2s-16.167 -2 -19.5 -2v483l43 -3c9.33301 -0.666992 18 -1 26 -1
c19.333 0 33.666 0.333008 42.999 1c12 2 20.667 3 26 3z" />
    <glyph glyph-name="eacute" unicode="&#xe9;" 
d="M194 479l-0.000976562 -303.998c33.333 42 68 90 104 144c27.333 41.333 60.666 94.666 99.999 159.999l52 -3l50 3v-483c-7.33301 0 -20.166 0.666992 -38.499 2s-28.5 2 -30.5 2c-11.333 0 -20 -0.166992 -26 -0.5s-20.333 -1.5 -43 -3.5v308
c-38.667 -49.333 -76 -101.333 -112 -156c-32 -48.667 -62.667 -99.334 -92 -152.001c-3.33301 0 -10.666 0.666992 -21.999 2s-20.666 2 -27.999 2c-12 -0 -22.833 -0.666992 -32.5 -2s-16.167 -2 -19.5 -2v483l43 -3c9.33301 -0.666992 18 -1 26 -1
c19.333 0 33.666 0.333008 42.999 1c12 2 20.667 3 26 3zM75.999 609.002l32.999 43.999c26.667 -24.667 53.834 -43.167 81.501 -55.5s56.167 -18.5 85.5 -18.5c59.333 0 116.666 24.667 171.999 74l32 -43c-28 -27.333 -59.833 -48.333 -95.5 -63s-72.167 -22 -109.5 -22
c-36.667 0 -71.667 6.83301 -105 20.5s-64.666 34.834 -93.999 63.501z" />
    <glyph glyph-name="ecircumflex" unicode="&#xea;" horiz-adv-x="500" 
d="M56 -4l0.00292969 483c22 -2.66699 36.833 -4.16699 44.5 -4.5s15.834 -0.5 24.501 -0.5c20.667 0 43.667 1.66699 69 5v-213c2 -2 5 -2.33301 9 -1l96 103l96 111c4.66699 0 11.667 -0.666992 21 -2s16.666 -2 21.999 -2c4.66699 0 11.667 0.666992 21 2s16.333 2 21 2
v-6c-18 -22.667 -38.333 -45.334 -61 -68.001c-66 -66 -101.667 -102.333 -107 -109l81 -127c34 -54 66.667 -109.333 98 -166v-7c-8 0 -22.333 0.666992 -43 2s-31.667 2 -33 2c-8.66699 0 -21.334 -0.666992 -38.001 -2s-29.334 -2 -38.001 -2l-55 99
c-22.667 38.667 -43.334 72 -62.001 100c-4.66699 7.33301 -9 13.333 -13 18s-9 9.33398 -15 14.001v-231c-7.33301 0 -20.333 0.666992 -39 2s-28.667 2 -30 2c-7.33301 -0 -20.333 -0.666992 -39 -2s-28.667 -2 -30 -2z" />
    <glyph glyph-name="edieresis" unicode="&#xeb;" horiz-adv-x="481" 
d="M322 -4l-112.996 346l-62.5 -171c-20.333 -56.667 -39.833 -115 -58.5 -175l-41 2l-39 -2c-0.666992 3.33301 0.166016 7.5 2.49902 12.5s3.83301 8.5 4.5 10.5c8.66699 18 19.334 42 32.001 72l19 45l69.5 173c23.667 59.333 44.167 116 61.5 170
c6 0 14.667 -0.666992 26 -2s19.666 -2 24.999 -2c6 0 14.667 0.666992 26 2s19.666 2 24.999 2l56 -161l58 -163c10 -28 30.667 -81 62 -159c-8 0 -22.333 0.666992 -43 2s-32 2 -34 2c-8.66699 -0 -21.334 -0.666992 -38.001 -2s-29.334 -2 -38.001 -2z" />
    <glyph glyph-name="igrave" unicode="&#xec;" horiz-adv-x="741" 
d="M572 -4l-59.999 342c-35.333 -87.333 -62 -156.5 -80 -207.5s-32 -95.833 -42 -134.5c-6 0 -15 0.666992 -27 2s-21.333 2 -28 2s-16.334 -0.666992 -29.001 -2s-22 -2 -28 -2l-122 342c-10.667 -49.333 -21.834 -106.166 -33.501 -170.499s-21.167 -121.5 -28.5 -171.5
l-40 2l-39 -2l66 239.5c22 81 42.667 162.167 62 243.5c6 0 15 -0.666992 27 -2s21 -2 27 -2s15.833 0.666992 29.5 2s21.5 2 23.5 2l121 -329l123 329c6 0 15 -0.666992 27 -2s21.333 -2 28 -2c6 0 15 0.666992 27 2s21 2 27 2
c18.667 -96.667 35.334 -177.334 50.001 -242.001c19.333 -82.667 41.333 -163 66 -241c-8 0 -20 0.666992 -36 2s-28.333 2 -37 2c-8 -0 -20.333 -0.666992 -37 -2s-29 -2 -37 -2z" />
    <glyph glyph-name="iacute" unicode="&#xed;" 
d="M194 479l0.000976562 -199h168v199c19.333 -2 32.166 -3.16699 38.499 -3.5s16.5 -0.5 30.5 -0.5c19.333 0 33.666 0.333008 42.999 1c12 2 20.667 3 26 3v-483c-7.33301 0 -20.166 0.666992 -38.499 2s-28.5 2 -30.5 2c-11.333 -0 -20 -0.166992 -26 -0.5
s-20.333 -1.5 -43 -3.5v223h-168v-223c-7.33301 0 -20.166 0.666992 -38.499 2s-28.5 2 -30.5 2c-11.333 -0 -20 -0.166992 -26 -0.5s-20.333 -1.5 -43 -3.5v483l43 -3c9.33301 -0.666992 18 -1 26 -1c19.333 0 33.666 0.333008 42.999 1c12 2 20.667 3 26 3z" />
    <glyph glyph-name="icircumflex" unicode="&#xee;" horiz-adv-x="574" 
d="M285 -14c-74.667 0 -135.333 21.833 -182 65.5s-70 102.167 -70 175.5c0 78.667 23 142 69 190s107 72 183 72c76.667 0 138.5 -21.5 185.5 -64.5s70.5 -101.5 70.5 -175.5c0 -76.667 -23.333 -139.667 -70 -189s-108.667 -74 -186 -74zM292.001 445
c-38 0 -66.667 -20.999 -86 -62.999c-16.667 -36.667 -25 -87.334 -25 -152.001c0 -46.667 6.33301 -87.667 19 -123c18 -50.667 46.333 -76 85 -76c36 0 63.667 25.333 83 76c16.667 43.333 25 96.333 25 159c0 51.333 -8.66699 94 -26 128s-42.333 51 -75 51z" />
    <glyph glyph-name="idieresis" unicode="&#xef;" 
d="M282 478l217.998 1v-483c-7.33301 0 -20.166 0.666992 -38.499 2s-28.5 2 -30.5 2c-11.333 -0 -20 -0.166992 -26 -0.5s-20.333 -1.5 -43 -3.5v425h-168v-425c-7.33301 0 -20.166 0.666992 -38.499 2s-28.5 2 -30.5 2c-11.333 -0 -20 -0.166992 -26 -0.5
s-20.333 -1.5 -43 -3.5v483z" />
    <glyph glyph-name="eth" unicode="&#xf0;" 
d="M56 -259l-0.000976562 738.001c7.33301 0 19.833 -0.666992 37.5 -2s27.5 -2 29.5 -2c7.33301 0 18.333 0.666992 33 2s25.667 2 33 2v-87c12 30 29.5 53.667 52.5 71s50.833 26 83.5 26c67.333 0 118.333 -24.667 153 -74c30 -42.667 45 -99 45 -169
c0 -84.667 -20.333 -150.334 -61 -197.001c-36.667 -42 -83 -63 -139 -63c-31.333 0 -57.166 6.5 -77.499 19.5s-37.5 30.5 -51.5 52.5v-317c-25.333 3.33301 -48.333 5 -69 5s-43.667 -1.66699 -69 -5zM281.999 51.001c30.667 3.33301 53.8311 21.334 69.498 54.001
s23.5 76 23.5 130c0 60.667 -6.66699 107.5 -20 140.5s-35.666 49.5 -66.999 49.5c-38 0 -65 -24.333 -81 -73c-10.667 -32.667 -16 -73.334 -16 -122.001c0 -46 4.66699 -83.333 14 -112c14.667 -44.667 40.334 -67 77.001 -67z" />
    <glyph glyph-name="ntilde" unicode="&#xf1;" horiz-adv-x="481" 
d="M466 445l-38 -103.999h-23c-4 30 -14.333 54.333 -31 73c-18.667 20.667 -42.667 31 -72 31c-42 0 -74 -23.333 -96 -70c-17.333 -36.667 -26 -79.334 -26 -128.001c0 -62.667 12 -111 36 -145s62.333 -51 115 -51c20 0 39.5 4.16699 58.5 12.5s34.5 19.833 46.5 34.5
l17 -14l-25 -59c-12 -12 -32.167 -21.5 -60.5 -28.5s-52.833 -10.5 -73.5 -10.5c-79.333 0 -142.333 20.667 -189 62c-48.667 43.333 -73 103.333 -73 180c0 80 23.833 143.5 71.5 190.5s111.5 70.5 191.5 70.5c30.667 0 61 -3.5 91 -10.5s56.667 -18.167 80 -33.5z" />
    <glyph glyph-name="ograve" unicode="&#xf2;" horiz-adv-x="444" 
d="M445 412c-26 2.66699 -48.001 4.83008 -66.001 6.49707s-47.333 2.5 -88 2.5v-425c-7.33301 0 -20.166 0.666992 -38.499 2s-28.5 2 -30.5 2c-7.33301 0 -20.333 -0.666992 -39 -2s-28.667 -2 -30 -2v425c-44.667 0 -74.667 -0.666992 -90 -2
c-22.667 -3.33301 -43.667 -5.66602 -63 -6.99902c-0 4 0.833008 10.333 2.5 19s2.5 13.667 2.5 15c0 4.66699 -0.833008 11.167 -2.5 19.5s-2.5 12.833 -2.5 13.5h222h223c0 -4 -0.833008 -10.167 -2.5 -18.5s-2.5 -13.166 -2.5 -14.499
c0 -4.66699 0.833008 -11.167 2.5 -19.5s2.5 -13.166 2.5 -14.499z" />
    <glyph glyph-name="oacute" unicode="&#xf3;" horiz-adv-x="500" 
d="M94 -259l126.998 257.999l-202 480c7.33301 0 19.666 -0.666992 36.999 -2s30.333 -2 39 -2s21.334 0.666992 38.001 2s29.334 2 38.001 2l43 -117c18.667 -49.333 44.334 -113.666 77.001 -192.999l38 102l76 208l41 -2l41 2l-101 -228l-108 -253
c-34 -82 -67.333 -167.667 -100 -257c-10 2 -20.333 3 -31 3h-11h-20.5c-6.33301 0 -13.5 -1 -21.5 -3z" />
    <glyph glyph-name="ocircumflex" unicode="&#xf4;" horiz-adv-x="833" 
d="M350 754c8.66699 -1.33301 19.1689 -2.33105 31.502 -2.99805s24.166 -1 35.499 -1h41c11.333 2 19.666 3.33301 24.999 4v-324c27.333 39.333 66 59 116 59c67.333 0 118.333 -24.667 153 -74c30 -42.667 45 -99 45 -169c0 -84.667 -20.333 -150.334 -61 -197.001
c-36.667 -42 -83 -63 -139 -63c-24.667 0 -46.5 4.66699 -65.5 14s-35.167 21.666 -48.5 36.999v-296c-10.667 1.33301 -18.334 2 -23.001 2c-21.333 2 -35 3 -41 3c-20.667 0 -43.667 -1.66699 -69 -5v296c-13.333 -16 -29.166 -28.5 -47.499 -37.5
s-40.5 -13.5 -66.5 -13.5c-56.667 0 -103 20.667 -139 62c-40.667 46.667 -61 112.667 -61 198c0 70.667 14.667 127 44 169c34.667 49.333 86 74 154 74c50 0 88.667 -19.667 116 -59v324zM350.002 358.002c-8 21.333 -17.667 37.333 -29 48c-13.333 12.667 -30 19 -50 19
c-31.333 0 -53.666 -16.333 -66.999 -49s-20 -79.667 -20 -141c0 -55.333 7.66699 -99 23 -131s38.666 -49.667 69.999 -53c18 0 32.833 5 44.5 15s21.167 23.333 28.5 40v252zM562.002 425.002c-19.333 0 -35.502 -6.16699 -48.502 -18.5s-23.167 -28.5 -30.5 -48.5v-252
c7.33301 -16.667 16.833 -30 28.5 -40s26.5 -15 44.5 -15c30.667 3.33301 53.834 21.333 69.501 54s23.5 76 23.5 130c0 60.667 -6.66699 107.5 -20 140.5s-35.666 49.5 -66.999 49.5z" />
    <glyph glyph-name="otilde" unicode="&#xf5;" horiz-adv-x="500" 
d="M312 -4l-95.9971 173l-55 -84l-56 -88l-40 3l-40 -3l159 221l-75 129l-80 132c9.33301 0 24.666 -0.666992 45.999 -2s33 -2 35 -2c9.33301 0 25.166 0.666992 47.499 2s33.833 2 34.5 2c21.333 -38 35.333 -63.667 42 -77c18 -34 32.667 -60.333 44 -79
c34 47.333 68.667 99.333 104 156l45 -2l44 2l-103 -129l-59 -76l54 -95l112 -183c-9.33301 0 -24.833 0.666992 -46.5 2s-33.834 2 -36.501 2c-8.66699 -0 -23.667 -0.666992 -45 -2s-33 -2 -35 -2z" />
    <glyph glyph-name="odieresis" unicode="&#xf6;" 
d="M500 479l-0.00195312 -421h51c-1.33301 -5.33301 -2.5 -11.5 -3.5 -18.5s-1.5 -15.167 -1.5 -24.5c0 -8 0.333008 -15.833 1 -23.5s2 -14.5 4 -20.5h-10c-12.667 14 -30.667 22.333 -54 25s-65.666 4 -126.999 4c-174 0 -275.333 -1.33301 -304 -4v483
c8 -1.33301 19.5 -2.33301 34.5 -3s26.5 -1 34.5 -1h18h27l24 4v-421h168v421c18 -2.66699 41 -4 69 -4h43c12.667 2 21.334 3.33301 26.001 4z" />
    <glyph glyph-name="divide" unicode="&#xf7;" horiz-adv-x="519" 
d="M177 479l0.00390625 -179c0 -18 6.16699 -31.333 18.5 -40s28.166 -13 47.499 -13c15.333 0 30.166 3.16699 44.499 9.5s26.833 14.166 37.5 23.499v199c19.333 -2 32.166 -3.16699 38.499 -3.5s16.5 -0.5 30.5 -0.5c19.333 0 33.666 0.333008 42.999 1
c12 2 20.667 3 26 3v-483c-7.33301 0 -20.166 0.666992 -38.499 2s-28.5 2 -30.5 2c-11.333 0 -20 -0.166992 -26 -0.5s-20.333 -1.5 -43 -3.5v223c-22.667 -12 -46 -21.167 -70 -27.5s-52.333 -9.5 -85 -9.5c-34 0 -64.333 11.333 -91 34s-40 50.334 -40 83.001v180l43 -3
c9.33301 -0.666992 18 -1 26 -1c19.333 0 33.666 0.333008 42.999 1c12 2 20.667 3 26 3z" />
    <glyph glyph-name="oslash" unicode="&#xf8;" horiz-adv-x="722" 
d="M666 -4c-6 0 -44.333 0.666992 -115 2s-134 2 -190 2c-51.333 0 -101.833 -0.333008 -151.5 -1s-100.834 -1.66699 -153.501 -3v483c8 -1.33301 19.5 -2.33301 34.5 -3s26.5 -1 34.5 -1h18h27l24 4v-421h98v421c7.33301 -1.33301 18.666 -2.33301 33.999 -3s27 -1 35 -1
h18h27l24 4v-421h98v421c8.66699 -1.33301 19.334 -2.33301 32.001 -3s25 -1 37 -1h43c12.667 2 21.334 3.33301 26.001 4v-483z" />
    <glyph glyph-name="ugrave" unicode="&#xf9;" horiz-adv-x="722" 
d="M666 479l-0.00195312 -421h51c-1.33301 -5.33301 -2.5 -11.5 -3.5 -18.5s-1.5 -15.167 -1.5 -24.5c0 -8 0.333008 -15.833 1 -23.5s2 -14.5 4 -20.5h-10c-14.667 16 -37.5 24.833 -68.5 26.5s-78.167 2.5 -141.5 2.5h-136c-63.333 -0 -124.166 -0.166992 -182.499 -0.5
s-99.166 -1.5 -122.499 -3.5v483c8 -1.33301 19.5 -2.33301 34.5 -3s26.5 -1 34.5 -1h18h27l24 4v-421h98v421c7.33301 -1.33301 18.666 -2.33301 33.999 -3s27 -1 35 -1h18h27l24 4v-421h98v421c18 -2.66699 41 -4 69 -4h43c12.667 2 21.334 3.33301 26.001 4z" />
    <glyph glyph-name="uacute" unicode="&#xfa;" horiz-adv-x="500" 
d="M-4 479l234 -0.000976562v-203h87c48.667 0 87.667 -11 117 -33c32.667 -24.667 49 -59.667 49 -105c0 -40 -17.667 -73 -53 -99s-76 -39 -122 -39h-216v421c-20.667 0 -37 -0.666992 -49 -2s-27.667 -3.66602 -47 -6.99902c2.66699 8 4 19.333 4 34
c0 13.333 -1.33301 24.333 -4 33zM230 235.999v-194h16c24.667 0 45.667 7.66699 63 23c20.667 18 31 42.333 31 73c0 34 -8.5 58.833 -25.5 74.5s-38.833 23.5 -65.5 23.5h-19z" />
    <glyph glyph-name="ucircumflex" unicode="&#xfb;" horiz-adv-x="704" 
d="M510 -4v483c7.33301 0 20.166 -0.666992 38.499 -2s28.5 -2 30.5 -2c7.33301 0 20.333 0.666992 39 2s28.667 2 30 2v-483c-7.33301 0 -20.166 0.666992 -38.499 2s-28.5 2 -30.5 2c-7.33301 -0 -20.333 -0.666992 -39 -2s-28.667 -2 -30 -2zM194 236v-194h16
c24.667 0 45.667 7.66699 63 23c20.667 18 31 42.333 31 73c0 34 -8.5 58.833 -25.5 74.5s-38.833 23.5 -65.5 23.5h-19zM56 0v479l70 -3l68 3v-203h87c48.667 0 87.667 -11 117 -33c32.667 -24.667 49 -59.667 49 -105c0 -40 -17.667 -73 -53 -99s-76 -39 -122 -39h-216z
" />
    <glyph glyph-name="udieresis" unicode="&#xfc;" horiz-adv-x="463" 
d="M194 236v-194h16c24.667 0 45.667 7.66699 63 23c20.667 18 31 42.333 31 73c0 34 -8.5 58.833 -25.5 74.5s-38.833 23.5 -65.5 23.5h-19zM56 0v479l70 -3l68 3v-203h87c48.667 0 87.667 -11 117 -33c32.667 -24.667 49 -59.667 49 -105c0 -40 -17.667 -73 -53 -99
s-76 -39 -122 -39h-216z" />
    <glyph glyph-name="yacute" unicode="&#xfd;" horiz-adv-x="481" 
d="M147 280c22 -3.33301 49.332 -5.16504 81.999 -5.49805s56.334 -0.833008 71.001 -1.5c0 43.333 -9.66699 81.333 -29 114c-22.667 38.667 -53.334 58 -92.001 58c-28.667 0 -52 -10 -70 -30s-29 -44.667 -33 -74h-23l-38 104c21.333 14 48 24.833 80 32.5
s62.333 11.5 91 11.5c80 0 143.833 -23.5 191.5 -70.5s71.5 -110.5 71.5 -190.5c0 -76 -24 -135.333 -72 -178s-111.333 -64 -190 -64c-24 0 -49 3.66699 -75 11c-34 9.33301 -61.667 24 -83 44l-1 43l17 14c11.333 -14 26.833 -25.333 46.5 -34s39.167 -13 58.5 -13
c49.333 0 86.833 15.5 112.5 46.5s38.5 73.833 38.5 128.5c-23.333 -0.666992 -48.666 -1.33398 -75.999 -2.00098s-53.333 -2.33398 -78 -5.00098v61z" />
    <glyph glyph-name="thorn" unicode="&#xfe;" horiz-adv-x="778" 
d="M194 280h70c8.66699 64 34.167 114.833 76.5 152.5s95.833 56.5 160.5 56.5c74 0 133.167 -21.5 177.5 -64.5s66.5 -101.5 66.5 -175.5c0 -78 -21 -140.667 -63 -188c-44 -50 -104.333 -75 -181 -75c-72 0 -130 21 -174 63s-66 98.667 -66 170h-67v-223
c-7.33301 0 -20.166 0.666992 -38.499 2s-28.5 2 -30.5 2c-7.33301 -0 -20.333 -0.666992 -39 -2s-28.667 -2 -30 -2v483c7.33301 0 20.166 -0.666992 38.499 -2s28.5 -2 30.5 -2c7.33301 0 20.333 0.666992 39 2s28.667 2 30 2v-199zM508 445
c-35.333 0 -61.333 -21 -78 -63c-14 -35.333 -21 -86 -21 -152c0 -52 4.33301 -93 13 -123c14.667 -50.667 41 -76 79 -76c36 0 61.667 23.333 77 70c12.667 38 19 93 19 165c0 52.667 -7 94.667 -21 126c-16 35.333 -38.667 53 -68 53z" />
    <glyph glyph-name="ydieresis" unicode="&#xff;" horiz-adv-x="500" 
d="M91 0c-13.333 0 -27.5 -0.333984 -42.5 -1.00098s-28.833 -1.66699 -41.5 -3l78 101l79 106c-31.333 5.33301 -59 19 -83 41c-31.333 28 -47 62.333 -47 103c0 44.667 17.333 77.834 52 99.501s81 32.5 139 32.5h219v-483c-10 1.33301 -20.667 2.33301 -32 3
s-22.333 1 -33 1c-12 0 -24.333 -0.333008 -37 -1s-24.667 -1.66699 -36 -3v203h-5c-15.333 -20.667 -36 -51.667 -62 -93l-69 -110c-12 1.33301 -25 2.33301 -39 3s-27.333 1 -40 1zM306 250.999v174h-31c-29.333 0 -53.333 -7.16699 -72 -21.5s-28 -34.5 -28 -60.5
c0 -29.333 9.83301 -52 29.5 -68s43.167 -24 70.5 -24h31z" />
    <glyph glyph-name="OE" unicode="&#x152;" horiz-adv-x="1000" 
 />
    <glyph glyph-name="oe" unicode="&#x153;" horiz-adv-x="1000" 
 />
    <glyph glyph-name="Scaron" unicode="&#x160;" horiz-adv-x="1000" 
 />
    <glyph glyph-name="scaron" unicode="&#x161;" horiz-adv-x="1000" 
 />
    <glyph glyph-name="Ydieresis" unicode="&#x178;" horiz-adv-x="1000" 
 />
    <glyph glyph-name="florin" unicode="&#x192;" horiz-adv-x="1000" 
 />
    <glyph glyph-name="circumflex" unicode="&#x2c6;" horiz-adv-x="1000" 
 />
    <glyph glyph-name="tilde" unicode="&#x2dc;" horiz-adv-x="1000" 
 />
    <glyph glyph-name="endash" unicode="&#x2013;" horiz-adv-x="500" 
d="M0 181v83h500v-83h-500z" />
    <glyph glyph-name="emdash" unicode="&#x2014;" horiz-adv-x="1000" 
d="M0 181v83h1000v-83h-1000z" />
    <glyph glyph-name="quoteleft" unicode="&#x2018;" horiz-adv-x="278" 
d="M242 694l-44.999 -185.001l-12 -48c-4 -15.333 -9.5 -31.333 -16.5 -48s-15.333 -28.667 -25 -36s-22.834 -11 -39.501 -11c-18.667 0 -34.5 6.16699 -47.5 18.5s-19.5 26.833 -19.5 43.5c0 10.667 3.33301 21.334 10 32.001l84 123l87 122z" />
    <glyph glyph-name="quoteright" unicode="&#x2019;" horiz-adv-x="278" 
d="M36 382l44.999 185l12 47.5c4 15.667 9.5 31.834 16.5 48.501s15.333 28.667 25 36s22.834 11 39.501 11c18.667 0 34.5 -6.16699 47.5 -18.5s19.5 -26.833 19.5 -43.5c0 -10.667 -3.33301 -21.334 -10 -32.001l-84 -123l-87 -122z" />
    <glyph glyph-name="quotesinglbase" unicode="&#x201a;" horiz-adv-x="1000" 
 />
    <glyph glyph-name="quotedblleft" unicode="&#x201c;" horiz-adv-x="500" 
d="M249 694l-44.999 -185.001l-12 -48c-4 -15.333 -9.5 -31.333 -16.5 -48s-15.333 -28.667 -25 -36s-22.834 -11 -39.501 -11c-18.667 0 -34.5 6.16699 -47.5 18.5s-19.5 26.833 -19.5 43.5c0 10.667 3.33301 21.334 10 32.001l84 123l87 122zM456.001 693.999
l-44.999 -185.001l-12 -48c-4 -15.333 -9.5 -31.333 -16.5 -48s-15.333 -28.667 -25 -36s-22.834 -11 -39.501 -11c-18.667 0 -34.5 6.16699 -47.5 18.5s-19.5 26.833 -19.5 43.5c0 10.667 3.33301 21.334 10 32.001l84 123l87 122z" />
    <glyph glyph-name="quotedblright" unicode="&#x201d;" horiz-adv-x="500" 
d="M251 382l44.999 185l12 47.5c4 15.667 9.5 31.834 16.5 48.501s15.333 28.667 25 36s22.834 11 39.501 11c18.667 0 34.5 -6.16699 47.5 -18.5s19.5 -26.833 19.5 -43.5c0 -10.667 -3.33301 -21.334 -10 -32.001l-84 -123l-87 -122zM43.999 382l44.999 185l12 47.5
c4 15.667 9.5 31.834 16.5 48.501s15.333 28.667 25 36s22.834 11 39.501 11c18.667 0 34.5 -6.16699 47.5 -18.5s19.5 -26.833 19.5 -43.5c0 -10.667 -3.33301 -21.334 -10 -32.001l-84 -123l-87 -122z" />
    <glyph glyph-name="quotedblbase" unicode="&#x201e;" horiz-adv-x="1000" 
 />
    <glyph glyph-name="dagger" unicode="&#x2020;" 
d="M220 -5l-0.000976562 379c-18 0 -45.333 -1 -82 -3s-64.334 -3 -83.001 -3l3.5 31.5c1 9 1.5 16.5 1.5 22.5c0 12 -0.666992 22.5 -2 31.5s-2.33301 16.5 -3 22.5c18 0 45.333 -1 82 -3s64.334 -3 83.001 -3v211c9.33301 -1.33301 20 -2.5 32 -3.5s20.667 -1.5 26 -1.5
c12.667 0 24 0.666992 34 2s18 2.33301 24 3v-211c18 0 45.333 1 82 3s64.334 3 83.001 3l-3.5 -31.5c-1 -9 -1.5 -16.5 -1.5 -22.5c0 -12 0.666992 -22.5 2 -31.5s2.33301 -16.5 3 -22.5c-18 0 -45.333 1 -82 3s-64.334 3 -83.001 3v-379c-9.33301 1.33301 -16.333 2 -21 2
c-19.333 2 -31.666 3 -36.999 3c-12.667 -0 -24 -0.666992 -34 -2s-18 -2.33301 -24 -3z" />
    <glyph glyph-name="daggerdbl" unicode="&#x2021;" horiz-adv-x="1000" 
 />
    <glyph glyph-name="bullet" unicode="&#x2022;" horiz-adv-x="1000" 
 />
    <glyph glyph-name="ellipsis" unicode="&#x2026;" horiz-adv-x="1000" 
d="M166 -14c-22.667 0 -41.833 8.16699 -57.5 24.5s-23.5 35.5 -23.5 57.5c0 21.333 8 40.333 24 57s35 25 57 25s41.333 -8 58 -24s25 -35.333 25 -58s-8 -42 -24 -58s-35.667 -24 -59 -24zM499.001 -14c-22.667 0 -41.833 8.16699 -57.5 24.5s-23.5 35.5 -23.5 57.5
c0 21.333 8 40.333 24 57s35 25 57 25s41.333 -8 58 -24s25 -35.333 25 -58s-8 -42 -24 -58s-35.667 -24 -59 -24zM832.002 -14c-22.667 0 -41.833 8.16699 -57.5 24.5s-23.5 35.5 -23.5 57.5c0 21.333 8 40.333 24 57s35 25 57 25s41.333 -8 58 -24s25 -35.333 25 -58
s-8 -42 -24 -58s-35.667 -24 -59 -24z" />
    <glyph glyph-name="perthousand" unicode="&#x2030;" horiz-adv-x="1000" 
 />
    <glyph glyph-name="guilsinglleft" unicode="&#x2039;" horiz-adv-x="1000" 
 />
    <glyph glyph-name="guilsinglright" unicode="&#x203a;" horiz-adv-x="1000" 
 />
    <glyph glyph-name="trademark" unicode="&#x2122;" horiz-adv-x="975" 
d="M684 402l68 132.001c27.333 53.333 50.666 102.333 69.999 147l25 -3l26 3c14 -125.333 22.333 -198.333 25 -219c8.66699 -72 17.667 -134.667 27 -188l-49 3l-48 -3c0 41.333 -3 86.166 -9 134.499l-17 141.5l-67 -135l-65 -138h-22l-62 129l-68 138
c-11.333 -82.667 -18.333 -140.5 -21 -173.5s-4 -65.167 -4 -96.5l-28 3l-27 -3c8.66699 47.333 18.834 111.5 30.501 192.5s21.5 152.5 29.5 214.5l25 -3l25 3l50 -106zM249 639.001v-365l-44 3l-45 -3v365c-22.667 0 -40.167 -0.5 -52.5 -1.5s-31.5 -3.16699 -57.5 -6.5
l3 25l-3 25h305l-3 -25l3 -25c-18 2 -37.667 3.83301 -59 5.5s-37 2.5 -47 2.5z" />
    <glyph glyph-name=".null" horiz-adv-x="0" 
 />
    <glyph glyph-name="nonmarkingreturn" horiz-adv-x="278" 
 />
    </font>
</defs>
</svg>
